<?xml version="1.0" encoding="UTF-8" standalone="no"?>
<!-- Created with Inkscape (http://www.inkscape.org/) -->

<svg
   version="1.1"
   id="svg1503"
   width="34.924999mm"
   height="66.349998mm"
   viewBox="0 0 132 250.77164"
   sodipodi:docname="launch-heavy-packaging_label-template.svg"
   inkscape:version="1.2.1 (9c6d41e410, 2022-07-14)"
   xmlns:inkscape="http://www.inkscape.org/namespaces/inkscape"
   xmlns:sodipodi="http://sodipodi.sourceforge.net/DTD/sodipodi-0.dtd"
   xmlns="http://www.w3.org/2000/svg"
   xmlns:svg="http://www.w3.org/2000/svg">
  <defs
     id="defs1507">
    <clipPath
       clipPathUnits="userSpaceOnUse"
       id="clipPath1529">
      <path
         d="M 0,0 H 99 V 243 H 0 Z"
         id="path1527" />
    </clipPath>
    <clipPath
       clipPathUnits="userSpaceOnUse"
       id="clipPath1557">
      <path
         d="m 19.543,205.992 h 3.939 v 4.57 h -3.939 z"
         id="path1555" />
    </clipPath>
    <clipPath
       clipPathUnits="userSpaceOnUse"
       id="clipPath1569">
      <path
         d="m 24.218,205.992 h 4.386 v 6.433 h -4.386 z"
         id="path1567" />
    </clipPath>
    <clipPath
       clipPathUnits="userSpaceOnUse"
       id="clipPath1581">
      <path
         d="m 29.218,205.992 h 3.686 v 4.57 h -3.686 z"
         id="path1579" />
    </clipPath>
    <clipPath
       clipPathUnits="userSpaceOnUse"
       id="clipPath1603">
      <path
         d="m 39.982,205.667 h 34.613 v 6.758 H 39.982 Z"
         id="path1601" />
    </clipPath>
    <clipPath
       clipPathUnits="userSpaceOnUse"
       id="clipPath1641">
      <path
         d="m 16.725,193.493 h 3.861 v 4.569 h -3.861 z"
         id="path1639" />
    </clipPath>
    <clipPath
       clipPathUnits="userSpaceOnUse"
       id="clipPath1653">
      <path
         d="m 20.976,191.8 h 4.403 v 6.181 h -4.403 z"
         id="path1651" />
    </clipPath>
    <clipPath
       clipPathUnits="userSpaceOnUse"
       id="clipPath1665">
      <path
         d="m 25.868,193.493 h 3.938 v 4.569 h -3.938 z"
         id="path1663" />
    </clipPath>
    <clipPath
       clipPathUnits="userSpaceOnUse"
       id="clipPath1677">
      <path
         d="m 30.371,193.493 h 4.594 v 4.488 h -4.594 z"
         id="path1675" />
    </clipPath>
    <clipPath
       clipPathUnits="userSpaceOnUse"
       id="clipPath1689">
      <path
         d="m 35.499,193.493 h 2.535 v 5.55 h -2.535 z"
         id="path1687" />
    </clipPath>
    <clipPath
       clipPathUnits="userSpaceOnUse"
       id="clipPath1703">
      <path
         d="m 42.262,193.493 h 5.563 v 6.009 h -5.563 z"
         id="path1701" />
    </clipPath>
    <clipPath
       clipPathUnits="userSpaceOnUse"
       id="clipPath1715">
      <path
         d="m 48.511,193.493 h 25.992 v 6.095 H 48.511 Z"
         id="path1713" />
    </clipPath>
    <clipPath
       clipPathUnits="userSpaceOnUse"
       id="clipPath1743">
      <path
         d="m 11.919,176.422 h 4.191 v 6.098 h -4.191 z"
         id="path1741" />
    </clipPath>
    <clipPath
       clipPathUnits="userSpaceOnUse"
       id="clipPath1755">
      <path
         d="m 16.868,176.422 h 3.686 v 4.569 h -3.686 z"
         id="path1753" />
    </clipPath>
    <clipPath
       clipPathUnits="userSpaceOnUse"
       id="clipPath1767">
      <path
         d="m 21.347,176.507 h 2.894 v 4.484 h -2.894 z"
         id="path1765" />
    </clipPath>
    <clipPath
       clipPathUnits="userSpaceOnUse"
       id="clipPath1781">
      <path
         d="m 27.599,176.422 h 3.862 v 4.569 h -3.862 z"
         id="path1779" />
    </clipPath>
    <clipPath
       clipPathUnits="userSpaceOnUse"
       id="clipPath1799">
      <path
         d="m 11.581,120.619 h 5.245 v 6.095 h -5.245 z"
         id="path1797" />
    </clipPath>
    <clipPath
       clipPathUnits="userSpaceOnUse"
       id="clipPath1811">
      <path
         d="m 17.635,120.619 h 4.191 v 6.095 h -4.191 z"
         id="path1809" />
    </clipPath>
    <clipPath
       clipPathUnits="userSpaceOnUse"
       id="clipPath1837">
      <path
         d="m 46.288,120.619 h 36.949 v 6.095 H 46.288 Z"
         id="path1835" />
    </clipPath>
    <clipPath
       clipPathUnits="userSpaceOnUse"
       id="clipPath1877">
      <path
         d="m 11.504,108.119 h 5.786 v 6.01 h -5.786 z"
         id="path1875" />
    </clipPath>
    <clipPath
       clipPathUnits="userSpaceOnUse"
       id="clipPath1889">
      <path
         d="m 17.816,108.203 h 4.724 v 5.926 h -4.724 z"
         id="path1887" />
    </clipPath>
    <clipPath
       clipPathUnits="userSpaceOnUse"
       id="clipPath1901">
      <path
         d="m 23.107,108.119 h 4.594 v 6.095 h -4.594 z"
         id="path1899" />
    </clipPath>
    <clipPath
       clipPathUnits="userSpaceOnUse"
       id="clipPath1915">
      <path
         d="M 0,0 H 99 V 243 H 0 Z"
         id="path1913" />
    </clipPath>
    <clipPath
       clipPathUnits="userSpaceOnUse"
       id="clipPath1923">
      <path
         d="M 31.9263,115.353 H 86.833 v -9.4 H 31.9263 Z"
         id="path1921" />
    </clipPath>
    <clipPath
       clipPathUnits="userSpaceOnUse"
       id="clipPath1927">
      <path
         d="m 31.927,105.953 h 54.906 v 9.395 H 31.927 Z"
         id="path1925" />
    </clipPath>
    <clipPath
       clipPathUnits="userSpaceOnUse"
       id="clipPath1931">
      <path
         d="M 31.9263,115.353 H 86.833 v -9.4 H 31.9263 Z"
         id="path1929" />
    </clipPath>
    <clipPath
       clipPathUnits="userSpaceOnUse"
       id="clipPath1935">
      <path
         d="m 32.301,108.119 h 54.117 v 6.095 H 32.301 Z"
         id="path1933" />
    </clipPath>
    <clipPath
       clipPathUnits="userSpaceOnUse"
       id="clipPath1967">
      <path
         d="m 8.766,54.471 h 3.38 v 4.568 h -3.38 z"
         id="path1965" />
    </clipPath>
    <clipPath
       clipPathUnits="userSpaceOnUse"
       id="clipPath1979">
      <path
         d="m 12.866,54.4 h 2.813 v 3.632 h -2.813 z"
         id="path1977" />
    </clipPath>
    <clipPath
       clipPathUnits="userSpaceOnUse"
       id="clipPath1991">
      <path
         d="m 15.952,54.4 h 2.747 v 3.632 h -2.747 z"
         id="path1989" />
    </clipPath>
    <clipPath
       clipPathUnits="userSpaceOnUse"
       id="clipPath2003">
      <path
         d="m 19.426,54.471 h 1.139 v 5.021 h -1.139 z"
         id="path2001" />
    </clipPath>
    <clipPath
       clipPathUnits="userSpaceOnUse"
       id="clipPath2015">
      <path
         d="m 20.986,53.092 h 3.083 v 4.939 h -3.083 z"
         id="path2013" />
    </clipPath>
    <clipPath
       clipPathUnits="userSpaceOnUse"
       id="clipPath2027">
      <path
         d="m 25.005,54.471 h 2.867 v 3.56 h -2.867 z"
         id="path2025" />
    </clipPath>
    <clipPath
       clipPathUnits="userSpaceOnUse"
       id="clipPath2039">
      <path
         d="m 28.812,54.4 h 2.813 v 3.632 h -2.813 z"
         id="path2037" />
    </clipPath>
    <clipPath
       clipPathUnits="userSpaceOnUse"
       id="clipPath2051">
      <path
         d="m 32.231,54.4 h 3.208 v 5.022 h -3.208 z"
         id="path2049" />
    </clipPath>
    <clipPath
       clipPathUnits="userSpaceOnUse"
       id="clipPath2063">
      <path
         d="m 37.518,54.4 h 2.927 v 3.632 h -2.927 z"
         id="path2061" />
    </clipPath>
    <clipPath
       clipPathUnits="userSpaceOnUse"
       id="clipPath2075">
      <path
         d="m 41.325,54.471 h 2.866 v 3.56 h -2.866 z"
         id="path2073" />
    </clipPath>
    <clipPath
       clipPathUnits="userSpaceOnUse"
       id="clipPath2087">
      <path
         d="m 45.165,54.4 h 3.208 v 5.022 h -3.208 z"
         id="path2085" />
    </clipPath>
    <clipPath
       clipPathUnits="userSpaceOnUse"
       id="clipPath2099">
      <path
         d="m 50.279,54.471 h 4.396 v 4.568 h -4.396 z"
         id="path2097" />
    </clipPath>
    <clipPath
       clipPathUnits="userSpaceOnUse"
       id="clipPath2111">
      <path
         d="m 55.571,54.4 h 2.927 v 3.632 h -2.927 z"
         id="path2109" />
    </clipPath>
    <clipPath
       clipPathUnits="userSpaceOnUse"
       id="clipPath2123">
      <path
         d="m 59.378,54.471 h 2.867 v 3.56 h -2.867 z"
         id="path2121" />
    </clipPath>
    <clipPath
       clipPathUnits="userSpaceOnUse"
       id="clipPath2135">
      <path
         d="m 63.342,54.4 h 2.836 v 3.559 h -2.836 z"
         id="path2133" />
    </clipPath>
    <clipPath
       clipPathUnits="userSpaceOnUse"
       id="clipPath2147">
      <path
         d="m 66.298,53.113 h 3.271 v 6.309 h -3.271 z"
         id="path2145" />
    </clipPath>
    <clipPath
       clipPathUnits="userSpaceOnUse"
       id="clipPath2159">
      <path
         d="m 69.085,54.4 h 2.927 v 3.632 h -2.927 z"
         id="path2157" />
    </clipPath>
    <clipPath
       clipPathUnits="userSpaceOnUse"
       id="clipPath2171">
      <path
         d="m 72.831,54.4 h 2.674 v 3.632 h -2.674 z"
         id="path2169" />
    </clipPath>
    <clipPath
       clipPathUnits="userSpaceOnUse"
       id="clipPath2183">
      <path
         d="m 75.858,54.4 h 1.904 v 4.435 h -1.904 z"
         id="path2181" />
    </clipPath>
    <clipPath
       clipPathUnits="userSpaceOnUse"
       id="clipPath2195">
      <path
         d="m 78.359,54.4 h 2.837 v 3.559 h -2.837 z"
         id="path2193" />
    </clipPath>
    <clipPath
       clipPathUnits="userSpaceOnUse"
       id="clipPath2207">
      <path
         d="m 82.111,54.471 h 2.174 v 3.56 h -2.174 z"
         id="path2205" />
    </clipPath>
    <clipPath
       clipPathUnits="userSpaceOnUse"
       id="clipPath2219">
      <path
         d="m 84.384,54.4 h 2.813 v 3.632 h -2.813 z"
         id="path2217" />
    </clipPath>
    <clipPath
       clipPathUnits="userSpaceOnUse"
       id="clipPath2231">
      <path
         d="m 87.805,54.4 h 3.207 v 5.022 h -3.207 z"
         id="path2229" />
    </clipPath>
    <clipPath
       clipPathUnits="userSpaceOnUse"
       id="clipPath2243">
      <path
         d="m 11.892,46.471 h 1.139 v 5.02 h -1.139 z"
         id="path2241" />
    </clipPath>
    <clipPath
       clipPathUnits="userSpaceOnUse"
       id="clipPath2255">
      <path
         d="m 13.686,46.471 h 2.866 v 3.56 h -2.866 z"
         id="path2253" />
    </clipPath>
    <clipPath
       clipPathUnits="userSpaceOnUse"
       id="clipPath2267">
      <path
         d="m 19.045,46.4 h 3.32 v 4.712 h -3.32 z"
         id="path2265" />
    </clipPath>
    <clipPath
       clipPathUnits="userSpaceOnUse"
       id="clipPath2279">
      <path
         d="m 22.479,46.4 h 3.006 v 3.632 h -3.006 z"
         id="path2277" />
    </clipPath>
    <clipPath
       clipPathUnits="userSpaceOnUse"
       id="clipPath2291">
      <path
         d="m 26.378,46.4 h 1.001 v 5.026 h -1.001 z"
         id="path2289" />
    </clipPath>
    <clipPath
       clipPathUnits="userSpaceOnUse"
       id="clipPath2303">
      <path
         d="m 28.119,46.4 h 3.007 v 3.632 h -3.007 z"
         id="path2301" />
    </clipPath>
    <clipPath
       clipPathUnits="userSpaceOnUse"
       id="clipPath2315">
      <path
         d="m 31.979,46.471 h 2.173 v 3.56 h -2.173 z"
         id="path2313" />
    </clipPath>
    <clipPath
       clipPathUnits="userSpaceOnUse"
       id="clipPath2327">
      <path
         d="m 34.246,46.4 h 2.927 v 3.632 h -2.927 z"
         id="path2325" />
    </clipPath>
    <clipPath
       clipPathUnits="userSpaceOnUse"
       id="clipPath2339">
      <path
         d="m 38.02,46.4 h 3.208 v 5.026 H 38.02 Z"
         id="path2337" />
    </clipPath>
    <clipPath
       clipPathUnits="userSpaceOnUse"
       id="clipPath2351">
      <path
         d="m 41.839,46.4 h 3.007 v 3.632 h -3.007 z"
         id="path2349" />
    </clipPath>
    <clipPath
       clipPathUnits="userSpaceOnUse"
       id="clipPath2367">
      <path
         d="m 51.817,46.471 h 1.138 v 5.02 h -1.138 z"
         id="path2365" />
    </clipPath>
    <clipPath
       clipPathUnits="userSpaceOnUse"
       id="clipPath2379">
      <path
         d="m 53.459,46.4 h 1.907 v 4.435 h -1.907 z"
         id="path2377" />
    </clipPath>
    <clipPath
       clipPathUnits="userSpaceOnUse"
       id="clipPath2391">
      <path
         d="m 55.868,46.471 h 2.866 v 4.954 h -2.866 z"
         id="path2389" />
    </clipPath>
    <clipPath
       clipPathUnits="userSpaceOnUse"
       id="clipPath2403">
      <path
         d="m 61.253,46.471 h 3.38 v 4.568 h -3.38 z"
         id="path2401" />
    </clipPath>
    <clipPath
       clipPathUnits="userSpaceOnUse"
       id="clipPath2415">
      <path
         d="m 65.353,46.4 h 3.01 v 3.632 h -3.01 z"
         id="path2413" />
    </clipPath>
    <clipPath
       clipPathUnits="userSpaceOnUse"
       id="clipPath2427">
      <path
         d="m 69.213,46.471 h 4.648 v 3.56 h -4.648 z"
         id="path2425" />
    </clipPath>
    <clipPath
       clipPathUnits="userSpaceOnUse"
       id="clipPath2439">
      <path
         d="m 74.803,46.4 h 2.813 v 3.632 h -2.813 z"
         id="path2437" />
    </clipPath>
    <clipPath
       clipPathUnits="userSpaceOnUse"
       id="clipPath2451">
      <path
         d="m 77.891,46.4 h 2.75 v 3.632 h -2.75 z"
         id="path2449" />
    </clipPath>
    <clipPath
       clipPathUnits="userSpaceOnUse"
       id="clipPath2463">
      <path
         d="m 81.22,46.4 h 1.906 v 4.435 H 81.22 Z"
         id="path2461" />
    </clipPath>
    <clipPath
       clipPathUnits="userSpaceOnUse"
       id="clipPath2475">
      <path
         d="m 83.626,46.471 h 1.138 v 5.02 h -1.138 z"
         id="path2473" />
    </clipPath>
    <clipPath
       clipPathUnits="userSpaceOnUse"
       id="clipPath2487">
      <path
         d="m 85.361,46.4 h 2.674 v 3.632 h -2.674 z"
         id="path2485" />
    </clipPath>
    <clipPath
       clipPathUnits="userSpaceOnUse"
       id="clipPath2499">
      <path
         d="m 23.699,38.398 h 2.927 v 3.632 h -2.927 z"
         id="path2497" />
    </clipPath>
    <clipPath
       clipPathUnits="userSpaceOnUse"
       id="clipPath2511">
      <path
         d="m 27.505,38.471 h 2.867 v 3.56 h -2.867 z"
         id="path2509" />
    </clipPath>
    <clipPath
       clipPathUnits="userSpaceOnUse"
       id="clipPath2523">
      <path
         d="m 31.346,38.398 h 3.207 v 5.026 h -3.207 z"
         id="path2521" />
    </clipPath>
    <clipPath
       clipPathUnits="userSpaceOnUse"
       id="clipPath2539">
      <path
         d="m 39.592,38.398 h 3.007 v 3.632 h -3.007 z"
         id="path2537" />
    </clipPath>
    <clipPath
       clipPathUnits="userSpaceOnUse"
       id="clipPath2551">
      <path
         d="m 43.452,38.471 h 2.173 v 3.56 h -2.173 z"
         id="path2549" />
    </clipPath>
    <clipPath
       clipPathUnits="userSpaceOnUse"
       id="clipPath2563">
      <path
         d="m 45.726,38.398 h 2.813 v 3.632 h -2.813 z"
         id="path2561" />
    </clipPath>
    <clipPath
       clipPathUnits="userSpaceOnUse"
       id="clipPath2575">
      <path
         d="m 49.213,38.471 h 1.138 v 5.024 h -1.138 z"
         id="path2573" />
    </clipPath>
    <clipPath
       clipPathUnits="userSpaceOnUse"
       id="clipPath2587">
      <path
         d="m 50.773,37.092 h 3.087 v 4.939 h -3.087 z"
         id="path2585" />
    </clipPath>
    <clipPath
       clipPathUnits="userSpaceOnUse"
       id="clipPath2599">
      <path
         d="m 54.793,38.471 h 2.867 v 3.56 h -2.867 z"
         id="path2597" />
    </clipPath>
    <clipPath
       clipPathUnits="userSpaceOnUse"
       id="clipPath2611">
      <path
         d="m 60.173,38.471 h 3.213 v 4.568 h -3.213 z"
         id="path2609" />
    </clipPath>
    <clipPath
       clipPathUnits="userSpaceOnUse"
       id="clipPath2623">
      <path
         d="m 63.645,38.398 h 2.928 v 3.632 h -2.928 z"
         id="path2621" />
    </clipPath>
    <clipPath
       clipPathUnits="userSpaceOnUse"
       id="clipPath2635">
      <path
         d="m 67.453,38.471 h 2.173 v 3.56 h -2.173 z"
         id="path2633" />
    </clipPath>
    <clipPath
       clipPathUnits="userSpaceOnUse"
       id="clipPath2647">
      <path
         d="m 69.781,38.398 h 1.904 v 4.439 h -1.904 z"
         id="path2645" />
    </clipPath>
    <clipPath
       clipPathUnits="userSpaceOnUse"
       id="clipPath2659">
      <path
         d="m 71.786,38.398 h 2.75 v 3.632 h -2.75 z"
         id="path2657" />
    </clipPath>
    <clipPath
       clipPathUnits="userSpaceOnUse"
       id="clipPath2671">
      <path
         d="m 74.959,38.398 h 0.626 v 0.633 h -0.626 z"
         id="path2669" />
    </clipPath>
    <clipPath
       clipPathUnits="userSpaceOnUse"
       id="clipPath2683">
      <path
         d="M 0,0 H 99 V 243 H 0 Z"
         id="path2681" />
    </clipPath>
    <clipPath
       clipPathUnits="userSpaceOnUse"
       id="clipPath2707">
      <path
         d="m 38.435,96.5991 h 22.63 V 73.9689 h -22.63 z"
         id="path2705" />
    </clipPath>
    <clipPath
       clipPathUnits="userSpaceOnUse"
       id="clipPath2729">
      <path
         d="M 0,243 H 99 V 0 H 0 Z"
         id="path2727" />
    </clipPath>
  </defs>
  <sodipodi:namedview
     id="namedview1505"
     pagecolor="#ffffff"
     bordercolor="#000000"
     borderopacity="0.25"
     inkscape:showpageshadow="2"
     inkscape:pageopacity="0.0"
     inkscape:pagecheckerboard="0"
     inkscape:deskcolor="#d1d1d1"
     showgrid="false"
     inkscape:zoom="2.8507074"
     inkscape:cx="-60.686691"
     inkscape:cy="122.42575"
     inkscape:window-width="1920"
     inkscape:window-height="987"
     inkscape:window-x="0"
     inkscape:window-y="56"
     inkscape:window-maximized="0"
     inkscape:current-layer="g1511"
     inkscape:document-units="mm"
     showguides="true">
    <inkscape:page
       x="0"
       y="0"
       id="page1509"
       width="132"
       height="250.77164" />
  </sodipodi:namedview>
  <g
     id="g1511"
     inkscape:groupmode="layer"
     inkscape:label="Page 1"
     transform="matrix(1.3333333,0,0,-1.3333333,0,324)">
    <path
       d="M 0,54.921266 H 99 V 243 H 0 Z"
       style="fill:#ffffff;fill-opacity:1;fill-rule:nonzero;stroke:none;stroke-width:0.881239"
       id="path1513" />
    <text
       transform="scale(1.0177521,-0.98255755)"
       style="font-variant:normal;font-weight:300;font-stretch:normal;font-size:8.48003px;font-family:'Roboto Slab';-inkscape-font-specification:RobotoSlab-Light;writing-mode:lr-tb;fill:#2e2d2d;fill-opacity:1;fill-rule:nonzero;stroke:none;stroke-width:0.848003"
       id="text76"
       x="41.036407"
       y="-122.84805"><tspan
         sodipodi:role="line"
         id="tspan74"
         x="41.036407"
         y="-122.84805"
         style="stroke-width:0.848003">US002131</tspan></text>
    <text
       transform="scale(1,-1)"
       style="font-variant:normal;font-weight:300;font-stretch:normal;font-size:7.35553px;font-family:'Roboto Slab';-inkscape-font-specification:RobotoSlab-Light;writing-mode:lr-tb;fill:#2e2d2d;fill-opacity:1;fill-rule:nonzero;stroke:none;stroke-width:0.735553"
       id="text52-3"
       x="36.213715"
       y="-206.2178"><tspan
         sodipodi:role="line"
         id="tspan50"
         x="36.213715"
         y="-206.2178"
         style="stroke-width:0.735553">launch_heavy_1</tspan></text>
    <g
       id="g1515"
       transform="translate(12.3887,221.0791)">
      <path
         d="M 0,0 H 5.785 L 5.644,-0.885 H -0.945 V 12.857 H 0 Z"
         style="fill:#231f20;fill-opacity:1;fill-rule:nonzero;stroke:none"
         id="path1517" />
    </g>
    <g
       id="g1519"
       transform="translate(27.6938,224.0518)">
      <path
         d="m 0,0 h -5.987 l -1.265,-3.857 h -0.964 l 4.64,13.741 h 1.205 L 2.27,-3.857 H 1.246 Z M -0.282,0.844 -2.973,9.1 -5.706,0.844 Z"
         style="fill:#231f20;fill-opacity:1;fill-rule:nonzero;stroke:none"
         id="path1521" />
    </g>
    <g
       id="g1523">
      <g
         id="g1525"
         clip-path="url(#clipPath1529)">
        <g
           id="g1531"
           transform="translate(41.5723,224.4336)">
          <path
             d="m 0,0 v 0 c 0,-2.591 -1.406,-4.46 -4.399,-4.46 -3.014,0 -4.399,1.869 -4.399,4.46 v 9.502 h 0.943 V 0.08 c 0,-2.25 1.045,-3.675 3.456,-3.675 2.431,0 3.435,1.466 3.435,3.675 V 9.502 H 0 Z"
             style="fill:#231f20;fill-opacity:1;fill-rule:nonzero;stroke:none"
             id="path1533" />
        </g>
        <g
           id="g1535"
           transform="translate(55.3115,220.1943)">
          <path
             d="m 0,0 h -1.226 l -6.81,12.677 c 0.06,-0.884 0.12,-2.069 0.12,-4.5 V 0 h -0.903 v 13.741 h 1.226 l 6.81,-12.676 c -0.04,0.663 -0.12,2.21 -0.12,4.018 v 8.658 H 0 Z"
             style="fill:#231f20;fill-opacity:1;fill-rule:nonzero;stroke:none"
             id="path1537" />
        </g>
        <g
           id="g1539"
           transform="translate(68.4668,232.9111)">
          <path
             d="m 0,0 -0.521,-0.643 c -0.924,0.724 -1.688,1.045 -2.854,1.045 -2.511,0 -4.56,-1.788 -4.56,-6.248 0,-4.239 1.988,-6.227 4.5,-6.227 1.447,0 2.25,0.501 3.074,1.164 l 0.522,-0.642 c -0.864,-0.784 -1.989,-1.386 -3.637,-1.386 -3.133,0 -5.464,2.47 -5.464,7.091 0,4.721 2.471,7.072 5.505,7.072 C -1.867,1.226 -0.944,0.763 0,0"
             style="fill:#231f20;fill-opacity:1;fill-rule:nonzero;stroke:none"
             id="path1541" />
        </g>
        <g
           id="g1543"
           transform="translate(79.7344,227.0054)">
          <path
             d="M 0,0 H -6.87 V -6.811 H -7.814 V 6.93 H -6.87 V 0.843 H 0 V 6.93 H 0.965 V -6.811 H 0 Z"
             style="fill:#231f20;fill-opacity:1;fill-rule:nonzero;stroke:none"
             id="path1545" />
        </g>
      </g>
    </g>
    <g
       id="g3394"
       transform="translate(-2.6230432)">
      <g
         id="g1547"
         transform="translate(15.553838,212.002)">
        <path
           d="M 0,0 -1.884,-4.814 H -1.907 L -3.796,0 h -1.689 v -0.517 l 0.664,-0.114 v -4.666 l -0.664,-0.115 v -0.513 h 2.128 v 0.513 l -0.662,0.115 v 1.716 l -0.082,2.397 0.02,0.004 1.916,-4.745 h 0.533 l 1.916,4.75 0.021,-0.005 -0.076,-2.401 v -1.716 l -0.665,-0.115 v -0.513 h 2.129 v 0.513 L 1.03,-5.297 v 4.666 l 0.663,0.114 V 0 Z"
           style="fill:#231f20;fill-opacity:1;fill-rule:nonzero;stroke:none"
           id="path1549" />
      </g>
      <g
         id="g1551"
         transform="translate(-1.6458582)">
        <g
           id="g1553"
           clip-path="url(#clipPath1557)">
          <g
             id="g1559"
             transform="translate(19.5425,208.3198)">
            <path
               d="M 0,0 V 0 C 0,0.651 0.176,1.187 0.529,1.609 0.881,2.031 1.36,2.242 1.965,2.242 2.573,2.242 3.054,2.032 3.408,1.611 3.762,1.191 3.939,0.654 3.939,0 v -0.09 c 0,-0.656 -0.177,-1.193 -0.529,-1.611 -0.353,-0.418 -0.832,-0.627 -1.436,-0.627 -0.611,0 -1.093,0.21 -1.445,0.629 C 0.176,-1.28 0,-0.743 0,-0.09 Z m 0.802,-0.09 v 0 c 0,-0.466 0.098,-0.851 0.295,-1.155 0.196,-0.304 0.488,-0.456 0.877,-0.456 0.379,0 0.668,0.152 0.866,0.456 0.198,0.304 0.297,0.689 0.297,1.155 V 0 C 3.137,0.461 3.038,0.845 2.84,1.151 2.642,1.458 2.351,1.611 1.965,1.611 1.58,1.611 1.29,1.458 1.095,1.151 0.899,0.845 0.802,0.461 0.802,0 Z"
               style="fill:#231f20;fill-opacity:1;fill-rule:nonzero;stroke:none"
               id="path1561" />
          </g>
        </g>
      </g>
      <g
         id="g1563"
         transform="translate(-1.6458582)">
        <g
           id="g1565"
           clip-path="url(#clipPath1569)">
          <g
             id="g1571"
             transform="translate(27.1802,206.603)">
            <path
               d="M 0,0 V 0 C -0.144,-0.201 -0.32,-0.353 -0.527,-0.456 -0.735,-0.559 -0.976,-0.61 -1.25,-0.61 c -0.537,0 -0.956,0.194 -1.259,0.584 -0.302,0.389 -0.453,0.901 -0.453,1.536 v 0.085 c 0,0.708 0.151,1.279 0.453,1.713 0.303,0.434 0.725,0.651 1.268,0.651 0.26,0 0.49,-0.048 0.689,-0.144 0.2,-0.097 0.37,-0.235 0.511,-0.418 v 1.795 l -0.663,0.114 v 0.517 h 0.663 0.802 V 0.102 L 1.424,-0.012 V -0.525 H 0.065 Z m -2.161,1.51 v 0 c 0,-0.443 0.091,-0.798 0.273,-1.067 0.181,-0.268 0.462,-0.402 0.842,-0.402 0.239,0 0.44,0.054 0.602,0.163 0.163,0.108 0.298,0.261 0.403,0.459 V 2.706 C -0.144,2.891 -0.278,3.037 -0.444,3.146 -0.609,3.254 -0.807,3.308 -1.038,3.308 -1.42,3.308 -1.703,3.149 -1.886,2.832 -2.069,2.515 -2.161,2.103 -2.161,1.595 Z"
               style="fill:#231f20;fill-opacity:1;fill-rule:nonzero;stroke:none"
               id="path1573" />
          </g>
        </g>
      </g>
      <g
         id="g1575"
         transform="translate(-1.6458582)">
        <g
           id="g1577"
           clip-path="url(#clipPath1581)">
          <g
             id="g1583"
             transform="translate(31.2236,205.9922)">
            <path
               d="M 0,0 V 0 C -0.613,0 -1.101,0.204 -1.463,0.612 -1.825,1.021 -2.006,1.55 -2.006,2.201 V 2.38 c 0,0.627 0.187,1.149 0.56,1.565 0.373,0.416 0.814,0.624 1.324,0.624 0.591,0 1.039,-0.178 1.345,-0.537 C 1.528,3.674 1.681,3.197 1.681,2.6 V 2.1 H -1.176 L -1.188,2.079 C -1.18,1.656 -1.073,1.308 -0.867,1.036 -0.66,0.763 -0.372,0.626 0,0.626 c 0.271,0 0.509,0.04 0.714,0.117 0.205,0.077 0.382,0.183 0.531,0.319 L 1.559,0.541 C 1.401,0.389 1.193,0.261 0.934,0.157 0.675,0.052 0.364,0 0,0 m -0.122,3.939 v 0 C -0.391,3.939 -0.62,3.826 -0.81,3.599 -1,3.373 -1.116,3.088 -1.16,2.747 l 0.009,-0.021 h 2.03 v 0.106 c 0,0.315 -0.084,0.578 -0.252,0.79 -0.169,0.211 -0.418,0.317 -0.749,0.317"
               style="fill:#231f20;fill-opacity:1;fill-rule:nonzero;stroke:none"
               id="path1585" />
          </g>
        </g>
      </g>
      <g
         id="g1587"
         transform="translate(31.941038,212.4253)">
        <path
           d="M 0,0 V -0.517 L 0.663,-0.63 V -5.721 L 0,-5.835 v -0.512 h 2.128 v 0.512 L 1.464,-5.721 V 0 Z"
           style="fill:#231f20;fill-opacity:1;fill-rule:nonzero;stroke:none"
           id="path1589" />
      </g>
      <path
         d="m 35.752258,209.66 h 0.801 v 0.822 h -0.801 z m 0,-3.582 h 0.801 v 0.822 h -0.801 z"
         style="fill:#231f20;fill-opacity:1;fill-rule:nonzero;stroke:none"
         id="path1591" />
    </g>
    <g
       id="g3375"
       transform="translate(-2.6230432)">
      <g
         id="g1631"
         transform="translate(10.069438,199.502)">
        <path
           d="M 0,0 V -0.517 L 0.663,-0.631 V -5.298 L 0,-5.412 v -0.512 h 4.268 v 1.306 H 3.584 L 3.523,-5.298 H 1.465 v 4.667 l 0.663,0.114 V 0 Z"
           style="fill:#231f20;fill-opacity:1;fill-rule:nonzero;stroke:none"
           id="path1633" />
      </g>
      <g
         id="g1635"
         transform="translate(-1.6458582)">
        <g
           id="g1637"
           clip-path="url(#clipPath1641)">
          <g
             id="g1643"
             transform="translate(19.5361,193.5781)">
            <path
               d="M 0,0 V 0 C -0.024,0.119 -0.043,0.227 -0.057,0.321 -0.07,0.417 -0.08,0.511 -0.085,0.606 -0.24,0.408 -0.433,0.243 -0.665,0.112 c -0.232,-0.132 -0.48,-0.197 -0.743,-0.197 -0.458,0 -0.807,0.111 -1.046,0.335 -0.238,0.224 -0.358,0.539 -0.358,0.946 0,0.418 0.169,0.74 0.507,0.967 0.338,0.226 0.801,0.339 1.389,0.339 h 0.827 v 0.513 c 0,0.258 -0.082,0.462 -0.244,0.612 -0.163,0.151 -0.39,0.227 -0.68,0.227 -0.201,0 -0.378,-0.026 -0.531,-0.078 C -1.697,3.725 -1.821,3.654 -1.917,3.564 L -2.002,3.101 H -2.62 v 0.854 c 0.201,0.16 0.443,0.288 0.728,0.384 0.285,0.097 0.594,0.145 0.928,0.145 0.499,0 0.903,-0.128 1.213,-0.382 C 0.558,3.847 0.712,3.481 0.712,3.007 V 0.887 C 0.712,0.83 0.713,0.774 0.714,0.72 0.716,0.666 0.719,0.612 0.725,0.557 L 1.05,0.513 V 0 Z m -1.29,0.586 v 0 c 0.266,0 0.509,0.063 0.728,0.191 0.22,0.128 0.378,0.281 0.473,0.46 V 1.961 H -0.944 C -1.272,1.961 -1.532,1.885 -1.723,1.733 -1.914,1.582 -2.01,1.397 -2.01,1.18 c 0,-0.193 0.06,-0.34 0.179,-0.442 0.12,-0.101 0.3,-0.152 0.541,-0.152"
               style="fill:#231f20;fill-opacity:1;fill-rule:nonzero;stroke:none"
               id="path1645" />
          </g>
        </g>
      </g>
      <g
         id="g1647"
         transform="translate(-1.6458582)">
        <g
           id="g1649"
           clip-path="url(#clipPath1653)">
          <g
             id="g1655"
             transform="translate(25.3789,197.4634)">
            <path
               d="m 0,0 -0.395,-0.061 -1.676,-4.501 c -0.111,-0.295 -0.271,-0.553 -0.48,-0.772 -0.209,-0.22 -0.49,-0.33 -0.843,-0.33 -0.062,0 -0.143,0.007 -0.244,0.022 -0.1,0.015 -0.177,0.03 -0.232,0.043 l 0.082,0.631 c -0.016,0.003 0.032,0 0.144,-0.009 0.113,-0.007 0.184,-0.012 0.214,-0.012 0.171,0 0.309,0.074 0.415,0.222 0.106,0.148 0.198,0.318 0.277,0.511 L -2.547,-3.8 -4,-0.065 -4.402,0 v 0.517 h 1.777 V 0 l -0.496,-0.081 0.761,-2.173 0.147,-0.562 h 0.024 L -1.273,-0.081 -1.774,0 V 0.517 H 0 Z"
               style="fill:#231f20;fill-opacity:1;fill-rule:nonzero;stroke:none"
               id="path1657" />
          </g>
        </g>
      </g>
      <g
         id="g1659"
         transform="translate(-1.6458582)">
        <g
           id="g1661"
           clip-path="url(#clipPath1665)">
          <g
             id="g1667"
             transform="translate(25.8677,195.8193)">
            <path
               d="m 0,0 v 0 c 0,0.651 0.176,1.187 0.529,1.609 0.352,0.422 0.831,0.633 1.436,0.633 0.608,0 1.089,-0.21 1.443,-0.63 C 3.762,1.191 3.938,0.654 3.938,0 v -0.089 c 0,-0.657 -0.176,-1.194 -0.528,-1.612 -0.353,-0.417 -0.832,-0.626 -1.437,-0.626 -0.61,0 -1.092,0.209 -1.444,0.628 C 0.176,-1.279 0,-0.743 0,-0.089 Z m 0.801,-0.089 v 0 c 0,-0.467 0.099,-0.852 0.296,-1.156 0.196,-0.304 0.488,-0.456 0.876,-0.456 0.38,0 0.669,0.152 0.867,0.456 0.198,0.304 0.297,0.689 0.297,1.156 V 0 C 3.137,0.461 3.038,0.845 2.84,1.152 2.642,1.458 2.351,1.612 1.965,1.612 1.58,1.612 1.29,1.458 1.094,1.152 0.899,0.845 0.801,0.461 0.801,0 Z"
               style="fill:#231f20;fill-opacity:1;fill-rule:nonzero;stroke:none"
               id="path1669" />
          </g>
        </g>
      </g>
      <g
         id="g1671"
         transform="translate(-1.6458582)">
        <g
           id="g1673"
           clip-path="url(#clipPath1677)">
          <g
             id="g1679"
             transform="translate(33.688,194.2285)">
            <path
               d="m 0,0 v 0 c -0.139,-0.236 -0.317,-0.417 -0.535,-0.545 -0.218,-0.128 -0.47,-0.191 -0.755,-0.191 -0.478,0 -0.851,0.153 -1.119,0.459 -0.269,0.307 -0.403,0.784 -0.403,1.433 v 1.965 l -0.504,0.114 v 0.517 h 0.504 0.802 V 1.147 c 0,-0.469 0.069,-0.792 0.207,-0.968 0.138,-0.176 0.354,-0.264 0.647,-0.264 0.285,0 0.52,0.057 0.706,0.172 0.186,0.116 0.326,0.279 0.421,0.491 v 2.543 l -0.59,0.114 v 0.517 h 0.59 0.802 V -0.024 L 1.277,-0.138 V -0.651 H 0.053 Z"
               style="fill:#231f20;fill-opacity:1;fill-rule:nonzero;stroke:none"
               id="path1681" />
          </g>
        </g>
      </g>
      <g
         id="g1683"
         transform="translate(-1.6458582)">
        <g
           id="g1685"
           clip-path="url(#clipPath1689)">
          <g
             id="g1691"
             transform="translate(36.9966,199.0425)">
            <path
               d="M 0,0 V -1.062 H 0.834 V -1.656 H 0 V -4.33 c 0,-0.206 0.042,-0.351 0.128,-0.435 0.085,-0.084 0.199,-0.126 0.34,-0.126 0.071,0 0.15,0.006 0.238,0.018 0.088,0.012 0.162,0.025 0.222,0.039 l 0.11,-0.55 C 0.961,-5.433 0.85,-5.473 0.704,-5.503 0.557,-5.535 0.411,-5.55 0.264,-5.55 c -0.325,0 -0.584,0.098 -0.777,0.295 -0.193,0.196 -0.289,0.505 -0.289,0.925 v 2.674 h -0.696 v 0.594 h 0.696 V 0 Z"
               style="fill:#231f20;fill-opacity:1;fill-rule:nonzero;stroke:none"
               id="path1693" />
          </g>
        </g>
      </g>
      <path
         d="m 37.229138,197.158 h 0.802 v 0.823 h -0.802 z m 0,-3.58 h 0.802 v 0.822 h -0.802 z"
         style="fill:#231f20;fill-opacity:1;fill-rule:nonzero;stroke:none"
         id="path1695" />
    </g>
    <g
       id="g1697"
       transform="translate(-4.2689014)">
      <g
         id="g1699"
         clip-path="url(#clipPath1703)">
        <g
           id="g1705"
           transform="translate(44.0728,199.502)">
          <path
             d="m 0,0 v -0.362 l -0.663,-0.053 v -3.601 c 0,-0.505 0.149,-0.895 0.448,-1.17 0.298,-0.275 0.687,-0.413 1.167,-0.413 0.488,0 0.886,0.137 1.193,0.411 0.306,0.274 0.459,0.665 0.459,1.172 v 3.601 L 1.941,-0.362 V 0 H 3.752 V -0.362 L 3.088,-0.415 v -3.601 c 0,-0.646 -0.197,-1.139 -0.591,-1.481 -0.395,-0.342 -0.91,-0.513 -1.545,-0.513 -0.623,0 -1.13,0.172 -1.517,0.515 -0.388,0.343 -0.582,0.836 -0.582,1.479 v 3.601 l -0.664,0.053 V 0 h 0.664 0.484 z"
             style="fill:#231f20;fill-opacity:1;fill-rule:nonzero;stroke:none"
             id="path1707" />
        </g>
      </g>
    </g>
    <g
       id="g1709"
       transform="translate(-4.2689014)">
      <g
         id="g1711"
         clip-path="url(#clipPath1715)">
        <g
           id="g1717"
           transform="translate(52.54,197.7446)">
          <path
             d="m 0,0 h -0.399 l -0.07,0.838 c -0.146,0.185 -0.344,0.329 -0.597,0.433 -0.252,0.105 -0.548,0.157 -0.887,0.157 -0.488,0 -0.869,-0.105 -1.142,-0.317 -0.273,-0.212 -0.409,-0.475 -0.409,-0.789 0,-0.299 0.123,-0.548 0.368,-0.747 0.246,-0.2 0.671,-0.375 1.276,-0.527 0.637,-0.163 1.123,-0.382 1.455,-0.659 0.332,-0.277 0.498,-0.642 0.498,-1.095 0,-0.472 -0.193,-0.848 -0.577,-1.127 -0.386,-0.279 -0.878,-0.419 -1.478,-0.419 -0.423,0 -0.815,0.075 -1.178,0.224 -0.362,0.149 -0.658,0.362 -0.889,0.638 v 1.038 h 0.399 l 0.069,-0.867 c 0.179,-0.203 0.409,-0.358 0.688,-0.464 0.279,-0.105 0.583,-0.158 0.911,-0.158 0.467,0 0.845,0.103 1.134,0.309 0.289,0.206 0.432,0.479 0.432,0.818 0,0.323 -0.12,0.587 -0.361,0.792 -0.242,0.204 -0.662,0.385 -1.263,0.543 -0.647,0.162 -1.138,0.374 -1.472,0.634 -0.333,0.261 -0.5,0.612 -0.5,1.055 0,0.452 0.19,0.821 0.57,1.106 0.379,0.285 0.869,0.427 1.469,0.427 0.432,0 0.815,-0.074 1.153,-0.223 C -0.462,1.47 -0.195,1.268 0,1.013 Z"
             style="fill:#231f20;fill-opacity:1;fill-rule:nonzero;stroke:none"
             id="path1719" />
        </g>
        <g
           id="g1721"
           transform="translate(55.2832,193.936)">
          <path
             d="m 0,0 0.436,0.033 2.103,5.533 h 0.46 L 5.082,0.033 5.525,0 V -0.358 H 4.065 V 0 L 4.582,0.041 4.094,1.367 H 1.433 L 0.94,0.041 1.457,0 V -0.358 H 0 Z m 1.595,1.803 h 2.34 L 2.783,4.936 H 2.759 Z"
             style="fill:#231f20;fill-opacity:1;fill-rule:nonzero;stroke:none"
             id="path1723" />
        </g>
        <g
           id="g1725"
           transform="translate(67.0781,199.5024)">
          <path
             d="m 0,0 v -0.362 l -0.663,-0.053 v -5.509 h -0.484 l -3.365,5.094 -0.024,-0.004 v -4.68 l 0.663,-0.052 v -0.358 h -1.815 v 0.358 l 0.664,0.052 v 5.099 l -0.664,0.053 V 0 h 0.664 0.488 l 3.364,-5.086 0.025,0.004 v 4.667 l -0.665,0.053 V 0 h 1.149 z"
             style="fill:#231f20;fill-opacity:1;fill-rule:nonzero;stroke:none"
             id="path1727" />
        </g>
        <g
           id="g1729"
           transform="translate(71.8232,197.7446)">
          <path
             d="m 0,0 h -0.399 l -0.069,0.838 c -0.146,0.185 -0.345,0.329 -0.598,0.433 -0.252,0.105 -0.548,0.157 -0.887,0.157 -0.488,0 -0.869,-0.105 -1.142,-0.317 -0.272,-0.212 -0.409,-0.475 -0.409,-0.789 0,-0.299 0.123,-0.548 0.368,-0.747 0.246,-0.2 0.671,-0.375 1.277,-0.527 0.636,-0.163 1.122,-0.382 1.454,-0.659 0.332,-0.277 0.499,-0.642 0.499,-1.095 0,-0.472 -0.194,-0.848 -0.578,-1.127 -0.386,-0.279 -0.878,-0.419 -1.478,-0.419 -0.423,0 -0.815,0.075 -1.178,0.224 -0.362,0.149 -0.658,0.362 -0.888,0.638 v 1.038 h 0.398 l 0.067,-0.867 c 0.181,-0.203 0.411,-0.358 0.69,-0.464 0.279,-0.105 0.583,-0.158 0.911,-0.158 0.467,0 0.845,0.103 1.134,0.309 0.289,0.206 0.432,0.479 0.432,0.818 0,0.323 -0.12,0.587 -0.361,0.792 -0.241,0.204 -0.662,0.385 -1.264,0.543 -0.646,0.162 -1.137,0.374 -1.47,0.634 -0.334,0.261 -0.501,0.612 -0.501,1.055 0,0.452 0.19,0.821 0.57,1.106 0.379,0.285 0.869,0.427 1.469,0.427 0.432,0 0.815,-0.074 1.153,-0.223 C -0.462,1.47 -0.195,1.268 0,1.013 Z"
             style="fill:#231f20;fill-opacity:1;fill-rule:nonzero;stroke:none"
             id="path1731" />
        </g>
        <g
           id="g1733"
           transform="translate(72.6885,199.1406)">
          <path
             d="M 0,0 V 0.362 H 1.814 V 0 L 1.151,-0.053 V -5.152 L 1.814,-5.205 V -5.562 H 0 v 0.357 l 0.663,0.053 v 5.099 z"
             style="fill:#231f20;fill-opacity:1;fill-rule:nonzero;stroke:none"
             id="path1735" />
        </g>
      </g>
    </g>
    <g
       id="g3350"
       transform="translate(-2.6230432)">
      <g
         id="g1737"
         transform="translate(-1.6458582)">
        <g
           id="g1739"
           clip-path="url(#clipPath1743)">
          <g
             id="g1745"
             transform="translate(16.0039,180.6821)">
            <path
               d="m 0,0 h -0.606 l -0.151,0.846 c -0.122,0.103 -0.285,0.189 -0.488,0.257 -0.204,0.067 -0.44,0.101 -0.708,0.101 -0.426,0 -0.753,-0.09 -0.981,-0.27 -0.228,-0.181 -0.341,-0.416 -0.341,-0.706 0,-0.258 0.115,-0.473 0.347,-0.645 0.232,-0.172 0.607,-0.324 1.125,-0.454 0.624,-0.154 1.098,-0.382 1.423,-0.684 0.324,-0.3 0.486,-0.674 0.486,-1.118 0,-0.478 -0.195,-0.862 -0.584,-1.152 -0.389,-0.29 -0.898,-0.435 -1.528,-0.435 -0.456,0 -0.861,0.074 -1.215,0.223 -0.354,0.15 -0.642,0.345 -0.864,0.586 v 1.103 h 0.602 l 0.154,-0.85 c 0.155,-0.128 0.34,-0.232 0.554,-0.314 0.214,-0.081 0.471,-0.122 0.769,-0.122 0.404,0 0.724,0.086 0.958,0.257 0.235,0.17 0.352,0.402 0.352,0.695 0,0.272 -0.101,0.499 -0.305,0.682 -0.204,0.183 -0.563,0.337 -1.078,0.462 -0.627,0.149 -1.116,0.369 -1.469,0.659 -0.353,0.29 -0.529,0.655 -0.529,1.095 0,0.463 0.197,0.849 0.59,1.157 0.393,0.308 0.904,0.462 1.534,0.462 0.415,0 0.793,-0.071 1.133,-0.213 C -0.479,1.479 -0.206,1.306 0,1.103 Z"
               style="fill:#231f20;fill-opacity:1;fill-rule:nonzero;stroke:none"
               id="path1747" />
          </g>
        </g>
      </g>
      <g
         id="g1749"
         transform="translate(-1.6458582)">
        <g
           id="g1751"
           clip-path="url(#clipPath1755)">
          <g
             id="g1757"
             transform="translate(18.8735,176.4214)">
            <path
               d="M 0,0 V 0 C -0.613,0 -1.101,0.204 -1.463,0.612 -1.825,1.021 -2.006,1.55 -2.006,2.201 V 2.38 c 0,0.627 0.187,1.148 0.56,1.565 0.373,0.416 0.814,0.624 1.324,0.624 0.591,0 1.039,-0.178 1.345,-0.537 C 1.528,3.674 1.681,3.197 1.681,2.6 V 2.1 H -1.176 L -1.188,2.079 C -1.18,1.656 -1.073,1.308 -0.867,1.036 -0.661,0.763 -0.372,0.626 0,0.626 c 0.271,0 0.509,0.039 0.714,0.117 0.205,0.077 0.382,0.183 0.531,0.319 L 1.559,0.541 C 1.401,0.389 1.193,0.261 0.934,0.157 0.675,0.052 0.364,0 0,0 m -0.122,3.938 v 0 C -0.391,3.938 -0.62,3.826 -0.81,3.599 -1,3.373 -1.116,3.088 -1.16,2.747 l 0.009,-0.021 h 2.03 V 2.832 C 0.879,3.146 0.795,3.41 0.626,3.621 0.458,3.833 0.209,3.938 -0.122,3.938"
               style="fill:#231f20;fill-opacity:1;fill-rule:nonzero;stroke:none"
               id="path1759" />
          </g>
        </g>
      </g>
      <g
         id="g1761"
         transform="translate(-1.6458582)">
        <g
           id="g1763"
           clip-path="url(#clipPath1767)">
          <g
             id="g1769"
             transform="translate(21.3467,180.3926)">
            <path
               d="M 0,0 V 0.517 H 1.379 L 1.457,-0.122 C 1.582,0.103 1.736,0.279 1.919,0.407 2.102,0.535 2.312,0.598 2.547,0.598 2.61,0.598 2.674,0.593 2.741,0.584 2.807,0.575 2.858,0.564 2.893,0.554 L 2.788,-0.191 2.332,-0.167 C 2.12,-0.167 1.942,-0.216 1.799,-0.315 1.655,-0.414 1.544,-0.553 1.465,-0.732 V -3.259 L 2.128,-3.373 V -3.886 H 0 v 0.513 l 0.664,0.114 v 3.145 z"
               style="fill:#231f20;fill-opacity:1;fill-rule:nonzero;stroke:none"
               id="path1771" />
          </g>
        </g>
      </g>
      <path
         d="m 23.814138,182.037 h 0.802 v 0.818 h -0.802 z m -0.663,-1.127 v -0.518 l 0.663,-0.113 v -3.146 l -0.663,-0.114 v -0.512 h 2.127 v 0.512 l -0.662,0.114 v 3.777 z"
         style="fill:#231f20;fill-opacity:1;fill-rule:nonzero;stroke:none"
         id="path1773" />
      <g
         id="g1775"
         transform="translate(-1.6458582)">
        <g
           id="g1777"
           clip-path="url(#clipPath1781)">
          <g
             id="g1783"
             transform="translate(30.4111,176.5068)">
            <path
               d="M 0,0 V 0 C -0.024,0.119 -0.043,0.227 -0.057,0.321 -0.07,0.417 -0.08,0.511 -0.085,0.606 -0.24,0.408 -0.433,0.243 -0.665,0.112 c -0.232,-0.132 -0.48,-0.197 -0.743,-0.197 -0.458,0 -0.807,0.111 -1.046,0.335 -0.238,0.224 -0.358,0.539 -0.358,0.946 0,0.418 0.169,0.74 0.507,0.967 0.338,0.226 0.801,0.339 1.389,0.339 h 0.827 v 0.513 c 0,0.258 -0.082,0.462 -0.244,0.612 -0.163,0.151 -0.39,0.226 -0.68,0.226 -0.201,0 -0.378,-0.025 -0.531,-0.077 C -1.697,3.725 -1.821,3.654 -1.917,3.564 L -2.002,3.101 H -2.62 v 0.854 c 0.201,0.16 0.443,0.288 0.728,0.384 0.285,0.097 0.594,0.145 0.928,0.145 0.499,0 0.903,-0.128 1.213,-0.382 C 0.558,3.847 0.712,3.481 0.712,3.007 V 0.887 C 0.712,0.83 0.713,0.774 0.714,0.72 0.716,0.666 0.719,0.612 0.725,0.557 L 1.05,0.513 V 0 Z m -1.29,0.586 v 0 c 0.266,0 0.509,0.063 0.728,0.191 0.22,0.128 0.378,0.281 0.473,0.46 V 1.961 H -0.944 C -1.272,1.961 -1.532,1.885 -1.723,1.733 -1.915,1.582 -2.01,1.397 -2.01,1.18 c 0,-0.193 0.06,-0.34 0.179,-0.442 0.12,-0.101 0.3,-0.152 0.541,-0.152"
               style="fill:#231f20;fill-opacity:1;fill-rule:nonzero;stroke:none"
               id="path1785" />
          </g>
        </g>
      </g>
      <g
         id="g1787"
         transform="translate(30.374138,182.855)">
        <path
           d="m 0,0 v -0.517 l 0.663,-0.114 v -5.09 L 0,-5.835 v -0.513 h 2.128 v 0.513 L 1.465,-5.721 V 0 Z"
           style="fill:#231f20;fill-opacity:1;fill-rule:nonzero;stroke:none"
           id="path1789" />
      </g>
      <path
         d="m 33.337138,180.088 h 0.802 v 0.822 h -0.802 z m 0,-3.581 h 0.802 v 0.822 h -0.802 z"
         style="fill:#231f20;fill-opacity:1;fill-rule:nonzero;stroke:none"
         id="path1791" />
    </g>
    <g
       id="g3328"
       transform="translate(-2.6230432)">
      <g
         id="g1793"
         transform="translate(-1.6458582)">
        <g
           id="g1795"
           clip-path="url(#clipPath1799)">
          <g
             id="g1801"
             transform="translate(16.8262,123.6216)">
            <path
               d="m 0,0 v 0 c 0,-0.863 -0.248,-1.579 -0.743,-2.148 -0.495,-0.57 -1.135,-0.854 -1.923,-0.854 -0.764,0 -1.385,0.284 -1.863,0.854 -0.477,0.569 -0.716,1.285 -0.716,2.148 v 0.085 c 0,0.86 0.239,1.577 0.716,2.149 0.478,0.572 1.099,0.858 1.863,0.858 0.788,0 1.428,-0.286 1.923,-0.858 C -0.248,1.662 0,0.945 0,0.085 Z m -0.802,0.094 v 0 c 0,0.689 -0.164,1.251 -0.494,1.686 -0.329,0.435 -0.786,0.653 -1.37,0.653 -0.558,0 -0.994,-0.218 -1.308,-0.655 C -4.287,1.341 -4.443,0.78 -4.443,0.094 V 0 c 0,-0.694 0.156,-1.259 0.469,-1.695 0.314,-0.435 0.75,-0.653 1.308,-0.653 0.592,0 1.05,0.217 1.376,0.651 0.326,0.434 0.488,1 0.488,1.697 z"
               style="fill:#231f20;fill-opacity:1;fill-rule:nonzero;stroke:none"
               id="path1803" />
          </g>
        </g>
      </g>
      <g
         id="g1805"
         transform="translate(-1.6458582)">
        <g
           id="g1807"
           clip-path="url(#clipPath1811)">
          <g
             id="g1813"
             transform="translate(21.7207,124.8789)">
            <path
               d="m 0,0 h -0.606 l -0.151,0.846 c -0.122,0.103 -0.285,0.189 -0.488,0.257 -0.203,0.067 -0.44,0.102 -0.708,0.102 -0.426,0 -0.753,-0.091 -0.981,-0.271 -0.228,-0.181 -0.341,-0.416 -0.341,-0.706 0,-0.258 0.115,-0.473 0.347,-0.645 0.232,-0.172 0.607,-0.324 1.126,-0.454 0.623,-0.154 1.097,-0.382 1.422,-0.683 0.324,-0.301 0.486,-0.675 0.486,-1.119 0,-0.478 -0.195,-0.862 -0.584,-1.152 -0.389,-0.29 -0.898,-0.435 -1.528,-0.435 -0.455,0 -0.861,0.074 -1.215,0.223 -0.354,0.15 -0.642,0.345 -0.864,0.586 v 1.103 h 0.602 l 0.155,-0.85 c 0.154,-0.128 0.339,-0.232 0.553,-0.314 0.214,-0.081 0.471,-0.122 0.769,-0.122 0.404,0 0.724,0.086 0.958,0.257 0.235,0.17 0.352,0.402 0.352,0.695 0,0.272 -0.101,0.499 -0.305,0.682 -0.203,0.183 -0.563,0.337 -1.078,0.462 -0.627,0.149 -1.116,0.369 -1.469,0.659 -0.353,0.29 -0.529,0.655 -0.529,1.095 0,0.464 0.197,0.849 0.59,1.157 0.393,0.308 0.904,0.462 1.534,0.462 0.415,0 0.793,-0.071 1.133,-0.213 C -0.479,1.479 -0.206,1.306 0,1.103 Z"
               style="fill:#231f20;fill-opacity:1;fill-rule:nonzero;stroke:none"
               id="path1815" />
          </g>
        </g>
      </g>
      <g
         id="g1817"
         transform="translate(24.535338,126.6289)">
        <path
           d="m 0,0 v -0.518 l 0.663,-0.113 v -2.047 h -2.872 v 2.047 l 0.664,0.113 V 0 h -2.129 v -0.518 l 0.664,-0.113 v -4.667 l -0.664,-0.115 v -0.512 h 2.129 v 0.512 l -0.664,0.115 v 1.989 H 0.663 V -5.298 L 0,-5.413 v -0.512 h 2.128 v 0.512 l -0.663,0.115 v 4.667 l 0.663,0.113 V 0 Z"
           style="fill:#231f20;fill-opacity:1;fill-rule:nonzero;stroke:none"
           id="path1819" />
      </g>
      <g
         id="g1821"
         transform="translate(32.750138,126.6289)">
        <path
           d="M 0,0 V -0.518 L 0.607,-0.611 -0.139,-3.874 -0.257,-4.635 H -0.282 L -0.443,-3.874 -1.538,0 h -0.708 l -1.09,-3.874 -0.16,-0.746 -0.023,0.005 -0.11,0.741 -0.761,3.263 0.602,0.093 V 0 h -1.88 v -0.518 l 0.476,-0.061 1.29,-5.346 h 0.712 l 1.188,4.11 0.102,0.533 h 0.024 l 0.106,-0.533 1.172,-4.11 h 0.716 l 1.29,5.346 0.476,0.061 V 0 Z"
           style="fill:#231f20;fill-opacity:1;fill-rule:nonzero;stroke:none"
           id="path1823" />
      </g>
      <g
         id="g1825"
         transform="translate(37.298938,126.6289)">
        <path
           d="M 0,0 -2.071,-5.351 -2.51,-5.413 v -0.512 h 1.697 v 0.512 l -0.448,0.078 0.402,1.091 h 2.373 l 0.39,-1.091 -0.448,-0.078 v -0.512 h 1.702 v 0.512 L 2.722,-5.351 0.688,0 Z M 0.326,-1.03 H 0.349 L 1.27,-3.573 h -1.88 z"
           style="fill:#231f20;fill-opacity:1;fill-rule:nonzero;stroke:none"
           id="path1827" />
      </g>
      <path
         d="m 41.254138,124.286 h 0.802 v 0.823 h -0.802 z m 0,-3.582 h 0.802 v 0.822 h -0.802 z"
         style="fill:#231f20;fill-opacity:1;fill-rule:nonzero;stroke:none"
         id="path1829" />
    </g>
    <g
       id="g1961"
       transform="translate(0,55.5)">
      <g
         id="g1963"
         clip-path="url(#clipPath1967)">
        <g
           id="g1969"
           transform="translate(10.2988,59.0381)">
          <path
             d="m 0,0 h -0.893 l -0.64,-4.566 h 0.98 c 1.773,0 2.4,1.433 2.4,2.86 C 1.847,-0.3 0.947,0 0,0 M -0.546,-0.333 H 0.02 c 0.707,0 1.427,-0.174 1.427,-1.367 0,-1.195 -0.473,-2.533 -1.94,-2.533 h -0.593 z"
             style="fill:#231f20;fill-opacity:1;fill-rule:nonzero;stroke:none"
             id="path1971" />
        </g>
      </g>
    </g>
    <g
       id="g1973"
       transform="translate(0,55.5)">
      <g
         id="g1975"
         clip-path="url(#clipPath1979)">
        <g
           id="g1981"
           transform="translate(15.6787,57.1914)">
          <path
             d="m 0,0 v 0 c 0,0.474 -0.38,0.84 -1.06,0.84 -1.247,0 -1.753,-1.26 -1.753,-2.235 0,-0.891 0.466,-1.398 1.267,-1.398 0.453,0 0.826,0.152 1.186,0.413 l -0.173,0.274 C -0.86,-2.34 -1.146,-2.46 -1.52,-2.46 c -0.526,0 -0.893,0.314 -0.893,1.072 v 0.04 C -0.993,-1.233 0,-0.895 0,0 m -1.066,0.521 v 0 c 0.473,0 0.666,-0.26 0.666,-0.535 0,-0.639 -0.693,-0.925 -1.993,-1.026 0.093,0.739 0.473,1.561 1.327,1.561"
             style="fill:#231f20;fill-opacity:1;fill-rule:nonzero;stroke:none"
             id="path1983" />
        </g>
      </g>
    </g>
    <g
       id="g1985"
       transform="translate(0,55.5)">
      <g
         id="g1987"
         clip-path="url(#clipPath1991)">
        <g
           id="g1993"
           transform="translate(17.6387,58.0313)">
          <path
             d="m 0,0 v 0 c -0.78,0 -1.233,-0.437 -1.233,-0.926 0,-0.433 0.24,-0.707 0.933,-0.933 0.62,-0.202 0.8,-0.374 0.8,-0.742 0,-0.413 -0.34,-0.707 -0.954,-0.707 -0.42,0 -0.733,0.149 -0.993,0.395 l -0.24,-0.246 c 0.273,-0.261 0.647,-0.474 1.233,-0.474 0.834,0 1.354,0.434 1.354,1.053 0,0.526 -0.294,0.812 -0.98,1.026 -0.567,0.174 -0.76,0.341 -0.76,0.641 0,0.367 0.327,0.594 0.84,0.594 0.327,0 0.6,-0.107 0.847,-0.327 L 1.06,-0.394 C 0.767,-0.141 0.427,0 0,0"
             style="fill:#231f20;fill-opacity:1;fill-rule:nonzero;stroke:none"
             id="path1995" />
        </g>
      </g>
    </g>
    <g
       id="g1997"
       transform="translate(0,55.5)">
      <g
         id="g1999"
         clip-path="url(#clipPath2003)">
        <g
           id="g2005"
           transform="translate(20.2988,59.4922)">
          <path
             d="m 0,0 v 0 c -0.16,0 -0.28,-0.107 -0.3,-0.262 -0.027,-0.166 0.08,-0.3 0.26,-0.3 0.167,0 0.28,0.115 0.3,0.26 C 0.287,-0.135 0.187,0 0,0 m -0.486,-5.021 0.493,3.487 H -0.38 l -0.493,-3.487 z"
             style="fill:#231f20;fill-opacity:1;fill-rule:nonzero;stroke:none"
             id="path2007" />
        </g>
      </g>
    </g>
    <g
       id="g2009"
       transform="translate(0,55.5)">
      <g
         id="g2011"
         clip-path="url(#clipPath2015)">
        <g
           id="g2017"
           transform="translate(22.9458,58.0313)">
          <path
             d="m 0,0 v 0 c -1.313,0 -1.807,-1.279 -1.807,-2.228 0.007,-0.812 0.413,-1.333 1.114,-1.333 0.426,0 0.793,0.248 1.046,0.601 L 0.273,-3.54 C 0.16,-4.38 -0.313,-4.604 -0.82,-4.604 c -0.4,0 -0.734,0.144 -0.987,0.285 L -1.96,-4.613 c 0.307,-0.18 0.713,-0.324 1.153,-0.324 0.727,0 1.307,0.351 1.46,1.404 l 0.473,3.247 C 0.767,-0.101 0.453,0 0,0 m 0.006,-0.312 v 0 c 0.294,0 0.514,-0.061 0.721,-0.162 L 0.42,-2.506 c -0.294,-0.447 -0.627,-0.733 -1.06,-0.733 -0.467,0 -0.754,0.351 -0.754,1.011 -0.006,0.815 0.38,1.916 1.4,1.916"
             style="fill:#231f20;fill-opacity:1;fill-rule:nonzero;stroke:none"
             id="path2019" />
        </g>
      </g>
    </g>
    <g
       id="g2021"
       transform="translate(0,55.5)">
      <g
         id="g2023"
         clip-path="url(#clipPath2027)">
        <g
           id="g2029"
           transform="translate(27.0522,58.0313)">
          <path
             d="m 0,0 v 0 c -0.5,0 -0.973,-0.359 -1.32,-0.937 l 0.087,0.864 h -0.32 l -0.494,-3.488 h 0.38 l 0.293,2.087 c 0.341,0.641 0.781,1.148 1.261,1.148 0.413,0 0.606,-0.207 0.526,-0.787 L 0.067,-3.561 H 0.453 L 0.8,-1.079 C 0.9,-0.406 0.613,0 0,0"
             style="fill:#231f20;fill-opacity:1;fill-rule:nonzero;stroke:none"
             id="path2031" />
        </g>
      </g>
    </g>
    <g
       id="g2033"
       transform="translate(0,55.5)">
      <g
         id="g2035"
         clip-path="url(#clipPath2039)">
        <g
           id="g2041"
           transform="translate(31.6255,57.1914)">
          <path
             d="m 0,0 v 0 c 0,0.474 -0.38,0.84 -1.06,0.84 -1.247,0 -1.753,-1.26 -1.753,-2.235 0,-0.891 0.466,-1.398 1.266,-1.398 0.454,0 0.827,0.152 1.187,0.413 l -0.173,0.274 C -0.86,-2.34 -1.146,-2.46 -1.52,-2.46 c -0.527,0 -0.894,0.314 -0.894,1.072 v 0.04 C -0.993,-1.233 0,-0.895 0,0 m -1.067,0.521 v 0 c 0.474,0 0.667,-0.26 0.667,-0.535 0,-0.639 -0.693,-0.925 -1.994,-1.026 0.094,0.739 0.474,1.561 1.327,1.561"
             style="fill:#231f20;fill-opacity:1;fill-rule:nonzero;stroke:none"
             id="path2043" />
        </g>
      </g>
    </g>
    <g
       id="g2045"
       transform="translate(0,55.5)">
      <g
         id="g2047"
         clip-path="url(#clipPath2051)">
        <g
           id="g2053"
           transform="translate(35.438,59.3779)">
          <path
             d="m 0,0 -0.38,0.047 -0.266,-1.873 c -0.167,0.247 -0.454,0.478 -0.927,0.478 -1.214,0 -1.634,-1.351 -1.634,-2.258 0,-0.854 0.4,-1.373 1.074,-1.373 0.54,0 0.906,0.353 1.153,0.78 l -0.046,-0.707 h 0.333 z m -1.52,-1.666 v 0 c 0.42,0 0.66,-0.222 0.827,-0.515 l -0.214,-1.518 c -0.333,-0.569 -0.653,-0.96 -1.166,-0.96 -0.453,0 -0.727,0.351 -0.727,1.033 0,0.778 0.313,1.96 1.28,1.96"
             style="fill:#231f20;fill-opacity:1;fill-rule:nonzero;stroke:none"
             id="path2055" />
        </g>
      </g>
    </g>
    <g
       id="g2057"
       transform="translate(0,55.5)">
      <g
         id="g2059"
         clip-path="url(#clipPath2063)">
        <g
           id="g2065"
           transform="translate(39.3115,58.0313)">
          <path
             d="m 0,0 v 0 c -1.313,0 -1.793,-1.34 -1.793,-2.279 0,-0.834 0.4,-1.354 1.1,-1.354 0.44,0 0.813,0.253 1.073,0.633 0,-0.428 0.18,-0.573 0.467,-0.633 l 0.113,0.274 c -0.14,0.059 -0.22,0.131 -0.22,0.353 0,0.053 0.007,0.126 0.013,0.206 l 0.38,2.514 C 0.767,-0.101 0.454,0 0,0 m 0.013,-0.312 v 0 c 0.294,0 0.507,-0.061 0.714,-0.162 L 0.414,-2.573 c -0.294,-0.453 -0.614,-0.74 -1.04,-0.74 -0.48,0 -0.761,0.353 -0.761,1.034 0,0.805 0.374,1.967 1.4,1.967"
             style="fill:#231f20;fill-opacity:1;fill-rule:nonzero;stroke:none"
             id="path2067" />
        </g>
      </g>
    </g>
    <g
       id="g2069"
       transform="translate(0,55.5)">
      <g
         id="g2071"
         clip-path="url(#clipPath2075)">
        <g
           id="g2077"
           transform="translate(43.3716,58.0313)">
          <path
             d="m 0,0 v 0 c -0.5,0 -0.974,-0.359 -1.32,-0.937 l 0.087,0.864 h -0.32 l -0.494,-3.488 h 0.38 l 0.293,2.087 c 0.341,0.641 0.781,1.148 1.261,1.148 0.413,0 0.606,-0.207 0.526,-0.787 L 0.066,-3.561 H 0.453 L 0.8,-1.079 C 0.9,-0.406 0.613,0 0,0"
             style="fill:#231f20;fill-opacity:1;fill-rule:nonzero;stroke:none"
             id="path2079" />
        </g>
      </g>
    </g>
    <g
       id="g2081"
       transform="translate(0,55.5)">
      <g
         id="g2083"
         clip-path="url(#clipPath2087)">
        <g
           id="g2089"
           transform="translate(48.3716,59.3779)">
          <path
             d="m 0,0 -0.38,0.047 -0.267,-1.873 c -0.166,0.247 -0.453,0.478 -0.926,0.478 -1.214,0 -1.634,-1.351 -1.634,-2.258 0,-0.854 0.4,-1.373 1.074,-1.373 0.54,0 0.906,0.353 1.153,0.78 l -0.047,-0.707 h 0.334 z m -1.52,-1.666 v 0 c 0.42,0 0.66,-0.222 0.827,-0.515 l -0.214,-1.518 c -0.333,-0.569 -0.653,-0.96 -1.166,-0.96 -0.454,0 -0.727,0.351 -0.727,1.033 0,0.778 0.313,1.96 1.28,1.96"
             style="fill:#231f20;fill-opacity:1;fill-rule:nonzero;stroke:none"
             id="path2091" />
        </g>
      </g>
    </g>
    <g
       id="g2093"
       transform="translate(0,55.5)">
      <g
         id="g2095"
         clip-path="url(#clipPath2099)">
        <g
           id="g2101"
           transform="translate(54.4717,54.4717)">
          <path
             d="M 0,0 0.207,4.565 H -0.367 L -1.953,1.007 -2.594,4.565 H -3.12 L -4.193,0 h 0.38 l 0.506,2.188 c 0.161,0.699 0.354,1.539 0.427,1.986 L -2.207,0.54 h 0.38 l 1.66,3.647 C -0.207,3.739 -0.253,2.934 -0.28,2.2 L -0.38,0 Z"
             style="fill:#231f20;fill-opacity:1;fill-rule:nonzero;stroke:none"
             id="path2103" />
        </g>
      </g>
    </g>
    <g
       id="g2105"
       transform="translate(0,55.5)">
      <g
         id="g2107"
         clip-path="url(#clipPath2111)">
        <g
           id="g2113"
           transform="translate(57.3652,58.0313)">
          <path
             d="m 0,0 v 0 c -1.313,0 -1.794,-1.34 -1.794,-2.279 0,-0.834 0.399,-1.354 1.101,-1.354 0.439,0 0.813,0.253 1.073,0.633 0,-0.428 0.18,-0.573 0.467,-0.633 l 0.113,0.274 c -0.141,0.059 -0.221,0.131 -0.221,0.353 0,0.053 0.007,0.126 0.014,0.206 l 0.38,2.514 C 0.767,-0.101 0.453,0 0,0 m 0.013,-0.312 v 0 c 0.294,0 0.507,-0.061 0.714,-0.162 L 0.413,-2.573 c -0.293,-0.453 -0.613,-0.74 -1.04,-0.74 -0.48,0 -0.76,0.353 -0.76,1.034 0,0.805 0.373,1.967 1.4,1.967"
             style="fill:#231f20;fill-opacity:1;fill-rule:nonzero;stroke:none"
             id="path2115" />
        </g>
      </g>
    </g>
    <g
       id="g2117"
       transform="translate(0,55.5)">
      <g
         id="g2119"
         clip-path="url(#clipPath2123)">
        <g
           id="g2125"
           transform="translate(61.4248,58.0313)">
          <path
             d="m 0,0 v 0 c -0.5,0 -0.974,-0.359 -1.32,-0.937 l 0.087,0.864 h -0.321 l -0.493,-3.488 h 0.38 l 0.294,2.087 c 0.34,0.641 0.779,1.148 1.26,1.148 0.413,0 0.606,-0.207 0.526,-0.787 L 0.066,-3.561 H 0.453 L 0.8,-1.079 C 0.9,-0.406 0.613,0 0,0"
             style="fill:#231f20;fill-opacity:1;fill-rule:nonzero;stroke:none"
             id="path2127" />
        </g>
      </g>
    </g>
    <g
       id="g2129"
       transform="translate(0,55.5)">
      <g
         id="g2131"
         clip-path="url(#clipPath2135)">
        <g
           id="g2137"
           transform="translate(65.6846,54.4717)">
          <path
             d="M 0,0 0.493,3.485 H 0.106 L -0.187,1.354 C -0.5,0.747 -0.92,0.247 -1.439,0.247 c -0.394,0 -0.581,0.22 -0.5,0.773 l 0.346,2.465 H -1.974 L -2.326,1.007 c -0.094,-0.688 0.213,-1.08 0.812,-1.08 0.561,0 0.988,0.399 1.287,0.96 L -0.32,0 Z"
             style="fill:#231f20;fill-opacity:1;fill-rule:nonzero;stroke:none"
             id="path2139" />
        </g>
      </g>
    </g>
    <g
       id="g2141"
       transform="translate(0,55.5)">
      <g
         id="g2143"
         clip-path="url(#clipPath2147)">
        <g
           id="g2149"
           transform="translate(68.7852,59.1055)">
          <path
             d="m 0,0 v 0 c 0.213,0 0.399,-0.047 0.626,-0.182 l 0.153,0.268 c -0.253,0.152 -0.486,0.232 -0.786,0.232 -0.6,0 -1,-0.333 -1.073,-0.885 l -0.08,-0.579 h -0.607 l -0.045,-0.315 h 0.605 L -1.634,-4.507 C -1.74,-5.28 -2,-5.467 -2.487,-5.694 l 0.113,-0.3 c 0.667,0.3 0.994,0.54 1.12,1.473 l 0.427,3.06 h 0.873 l 0.087,0.315 h -0.92 l 0.08,0.551 C -0.646,-0.187 -0.407,0 0,0"
             style="fill:#231f20;fill-opacity:1;fill-rule:nonzero;stroke:none"
             id="path2151" />
        </g>
      </g>
    </g>
    <g
       id="g2153"
       transform="translate(0,55.5)">
      <g
         id="g2155"
         clip-path="url(#clipPath2159)">
        <g
           id="g2161"
           transform="translate(70.8779,58.0313)">
          <path
             d="m 0,0 v 0 c -1.312,0 -1.793,-1.34 -1.793,-2.279 0,-0.834 0.4,-1.354 1.1,-1.354 0.44,0 0.813,0.253 1.074,0.633 0,-0.428 0.18,-0.573 0.466,-0.633 l 0.114,0.274 C 0.82,-3.3 0.74,-3.228 0.74,-3.006 c 0,0.053 0.007,0.126 0.014,0.206 l 0.38,2.514 C 0.768,-0.101 0.454,0 0,0 m 0.014,-0.312 v 0 c 0.293,0 0.507,-0.061 0.714,-0.162 L 0.414,-2.573 c -0.294,-0.453 -0.613,-0.74 -1.04,-0.74 -0.48,0 -0.76,0.353 -0.76,1.034 0,0.805 0.373,1.967 1.4,1.967"
             style="fill:#231f20;fill-opacity:1;fill-rule:nonzero;stroke:none"
             id="path2163" />
        </g>
      </g>
    </g>
    <g
       id="g2165"
       transform="translate(0,55.5)">
      <g
         id="g2167"
         clip-path="url(#clipPath2171)">
        <g
           id="g2173"
           transform="translate(74.5645,58.0313)">
          <path
             d="m 0,0 v 0 c -1.273,0 -1.733,-1.319 -1.733,-2.228 0,-0.898 0.473,-1.405 1.266,-1.405 0.374,0 0.727,0.127 1.033,0.36 L 0.4,-3 c -0.266,-0.181 -0.527,-0.293 -0.86,-0.293 -0.526,0 -0.873,0.333 -0.873,1.047 0,0.772 0.326,1.92 1.34,1.92 0.3,0 0.519,-0.087 0.713,-0.275 l 0.22,0.242 C 0.68,-0.104 0.373,0 0,0"
             style="fill:#231f20;fill-opacity:1;fill-rule:nonzero;stroke:none"
             id="path2175" />
        </g>
      </g>
    </g>
    <g
       id="g2177"
       transform="translate(0,55.5)">
      <g
         id="g2179"
         clip-path="url(#clipPath2183)">
        <g
           id="g2185"
           transform="translate(76.5049,55.332)">
          <path
             d="M 0,0 0.326,2.313 H 1.173 L 1.26,2.626 H 0.366 L 0.493,3.506 0.187,3.473 -0.007,2.626 H -0.601 L -0.646,2.313 h 0.585 l -0.326,-2.32 c -0.087,-0.606 0.206,-0.928 0.734,-0.928 0.28,0 0.519,0.081 0.753,0.213 L 0.967,-0.435 C 0.78,-0.534 0.6,-0.602 0.406,-0.602 0.053,-0.602 -0.061,-0.407 0,0"
             style="fill:#231f20;fill-opacity:1;fill-rule:nonzero;stroke:none"
             id="path2187" />
        </g>
      </g>
    </g>
    <g
       id="g2189"
       transform="translate(0,55.5)">
      <g
         id="g2191"
         clip-path="url(#clipPath2195)">
        <g
           id="g2197"
           transform="translate(80.6982,54.4717)">
          <path
             d="M 0,0 0.493,3.485 H 0.104 L -0.187,1.354 C -0.5,0.747 -0.92,0.247 -1.44,0.247 c -0.393,0 -0.581,0.22 -0.5,0.773 l 0.346,2.465 h -0.38 L -2.327,1.007 c -0.093,-0.688 0.214,-1.08 0.813,-1.08 0.561,0 0.988,0.399 1.285,0.96 L -0.32,0 Z"
             style="fill:#231f20;fill-opacity:1;fill-rule:nonzero;stroke:none"
             id="path2199" />
        </g>
      </g>
    </g>
    <g
       id="g2201"
       transform="translate(0,55.5)">
      <g
         id="g2203"
         clip-path="url(#clipPath2207)">
        <g
           id="g2209"
           transform="translate(83.9512,58.0313)">
          <path
             d="m 0,0 v 0 c -0.479,0 -0.853,-0.333 -1.113,-0.92 l 0.093,0.847 H -1.347 L -1.84,-3.561 h 0.38 l 0.287,1.988 c 0.286,0.747 0.613,1.2 1.12,1.2 0.093,0 0.187,-0.007 0.282,-0.033 l 0.105,0.36 C 0.254,-0.021 0.134,0 0,0"
             style="fill:#231f20;fill-opacity:1;fill-rule:nonzero;stroke:none"
             id="path2211" />
        </g>
      </g>
    </g>
    <g
       id="g2213"
       transform="translate(0,55.5)">
      <g
         id="g2215"
         clip-path="url(#clipPath2219)">
        <g
           id="g2221"
           transform="translate(87.1973,57.1914)">
          <path
             d="m 0,0 v 0 c 0,0.474 -0.38,0.84 -1.06,0.84 -1.247,0 -1.753,-1.26 -1.753,-2.235 0,-0.891 0.466,-1.398 1.266,-1.398 0.454,0 0.827,0.152 1.188,0.413 l -0.174,0.274 C -0.859,-2.34 -1.146,-2.46 -1.52,-2.46 c -0.527,0 -0.893,0.314 -0.893,1.072 v 0.04 C -0.993,-1.233 0,-0.895 0,0 m -1.066,0.521 v 0 c 0.473,0 0.667,-0.26 0.667,-0.535 0,-0.639 -0.694,-0.925 -1.995,-1.026 0.094,0.739 0.474,1.561 1.328,1.561"
             style="fill:#231f20;fill-opacity:1;fill-rule:nonzero;stroke:none"
             id="path2223" />
        </g>
      </g>
    </g>
    <g
       id="g2225"
       transform="translate(0,55.5)">
      <g
         id="g2227"
         clip-path="url(#clipPath2231)">
        <g
           id="g2233"
           transform="translate(91.0117,59.3779)">
          <path
             d="m 0,0 -0.38,0.047 -0.266,-1.873 c -0.167,0.247 -0.455,0.478 -0.927,0.478 -1.214,0 -1.634,-1.351 -1.634,-2.258 0,-0.854 0.4,-1.373 1.073,-1.373 0.54,0 0.907,0.353 1.154,0.78 l -0.047,-0.707 h 0.334 z m -1.521,-1.666 v 0 c 0.42,0 0.661,-0.222 0.828,-0.515 l -0.214,-1.518 c -0.333,-0.569 -0.654,-0.96 -1.166,-0.96 -0.454,0 -0.727,0.351 -0.727,1.033 0,0.778 0.313,1.96 1.279,1.96"
             style="fill:#231f20;fill-opacity:1;fill-rule:nonzero;stroke:none"
             id="path2235" />
        </g>
      </g>
    </g>
    <g
       id="g2237"
       transform="translate(0,55.5)">
      <g
         id="g2239"
         clip-path="url(#clipPath2243)">
        <g
           id="g2245"
           transform="translate(12.7656,51.4912)">
          <path
             d="m 0,0 v 0 c -0.16,0 -0.28,-0.106 -0.3,-0.261 -0.027,-0.167 0.08,-0.3 0.26,-0.3 0.166,0 0.28,0.115 0.3,0.26 C 0.287,-0.134 0.187,0 0,0 m -0.487,-5.021 0.493,3.488 H -0.38 l -0.494,-3.488 z"
             style="fill:#231f20;fill-opacity:1;fill-rule:nonzero;stroke:none"
             id="path2247" />
        </g>
      </g>
    </g>
    <g
       id="g2249"
       transform="translate(0,55.5)">
      <g
         id="g2251"
         clip-path="url(#clipPath2255)">
        <g
           id="g2257"
           transform="translate(15.7319,50.0313)">
          <path
             d="m 0,0 v 0 c -0.5,0 -0.973,-0.359 -1.32,-0.937 l 0.087,0.864 h -0.32 l -0.493,-3.488 h 0.379 l 0.293,2.086 c 0.341,0.642 0.781,1.149 1.261,1.149 0.413,0 0.606,-0.207 0.527,-0.787 L 0.067,-3.561 H 0.454 L 0.8,-1.08 C 0.9,-0.406 0.613,0 0,0"
             style="fill:#231f20;fill-opacity:1;fill-rule:nonzero;stroke:none"
             id="path2259" />
        </g>
      </g>
    </g>
    <g
       id="g2261"
       transform="translate(0,55.5)">
      <g
         id="g2263"
         clip-path="url(#clipPath2267)">
        <g
           id="g2269"
           transform="translate(21.2319,51.1113)">
          <path
             d="m 0,0 v 0 c -1.586,0 -2.187,-1.673 -2.187,-2.888 0,-1.192 0.634,-1.825 1.561,-1.825 0.553,0 0.966,0.206 1.279,0.46 L 0.467,-3.967 C 0.173,-4.181 -0.12,-4.36 -0.6,-4.36 c -0.68,0 -1.173,0.447 -1.173,1.454 0,1.066 0.453,2.566 1.8,2.566 0.347,0 0.593,-0.099 0.86,-0.341 l 0.246,0.254 C 0.84,-0.16 0.513,0 0,0"
             style="fill:#231f20;fill-opacity:1;fill-rule:nonzero;stroke:none"
             id="path2271" />
        </g>
      </g>
    </g>
    <g
       id="g2273"
       transform="translate(0,55.5)">
      <g
         id="g2275"
         clip-path="url(#clipPath2279)">
        <g
           id="g2281"
           transform="translate(24.2256,50.0313)">
          <path
             d="m 0,0 v 0 c -1.313,0 -1.747,-1.34 -1.747,-2.221 0,-0.88 0.454,-1.412 1.267,-1.412 1.32,0 1.74,1.373 1.74,2.234 C 1.26,-0.515 0.8,0 0,0 m -0.013,-0.32 v 0 c 0.559,0 0.866,-0.353 0.866,-1.053 0,-0.747 -0.307,-1.935 -1.327,-1.935 -0.559,0 -0.873,0.355 -0.873,1.055 0,0.727 0.3,1.933 1.334,1.933"
             style="fill:#231f20;fill-opacity:1;fill-rule:nonzero;stroke:none"
             id="path2283" />
        </g>
      </g>
    </g>
    <g
       id="g2285"
       transform="translate(0,55.5)">
      <g
         id="g2287"
         clip-path="url(#clipPath2291)">
        <g
           id="g2293"
           transform="translate(26.7656,47.0576)">
          <path
             d="M 0,0 0.613,4.366 0.227,4.319 -0.374,0.061 c -0.073,-0.495 0.141,-0.72 0.527,-0.72 0.134,0 0.274,0.033 0.407,0.093 L 0.473,-0.279 C 0.387,-0.312 0.307,-0.333 0.22,-0.333 0.026,-0.333 -0.027,-0.228 0,0"
             style="fill:#231f20;fill-opacity:1;fill-rule:nonzero;stroke:none"
             id="path2295" />
        </g>
      </g>
    </g>
    <g
       id="g2297"
       transform="translate(0,55.5)">
      <g
         id="g2299"
         clip-path="url(#clipPath2303)">
        <g
           id="g2305"
           transform="translate(29.8652,50.0313)">
          <path
             d="m 0,0 v 0 c -1.313,0 -1.747,-1.34 -1.747,-2.221 0,-0.88 0.454,-1.412 1.267,-1.412 1.32,0 1.74,1.373 1.74,2.234 C 1.26,-0.515 0.8,0 0,0 m -0.013,-0.32 v 0 c 0.56,0 0.867,-0.353 0.867,-1.053 0,-0.747 -0.307,-1.935 -1.327,-1.935 -0.56,0 -0.874,0.355 -0.874,1.055 0,0.727 0.301,1.933 1.334,1.933"
             style="fill:#231f20;fill-opacity:1;fill-rule:nonzero;stroke:none"
             id="path2307" />
        </g>
      </g>
    </g>
    <g
       id="g2309"
       transform="translate(0,55.5)">
      <g
         id="g2311"
         clip-path="url(#clipPath2315)">
        <g
           id="g2317"
           transform="translate(33.8188,50.0313)">
          <path
             d="m 0,0 v 0 c -0.48,0 -0.854,-0.333 -1.113,-0.92 l 0.093,0.847 H -1.347 L -1.84,-3.561 h 0.38 l 0.287,1.988 c 0.286,0.747 0.613,1.2 1.12,1.2 0.093,0 0.186,-0.007 0.28,-0.033 l 0.106,0.359 C 0.253,-0.021 0.133,0 0,0"
             style="fill:#231f20;fill-opacity:1;fill-rule:nonzero;stroke:none"
             id="path2319" />
        </g>
      </g>
    </g>
    <g
       id="g2321"
       transform="translate(0,55.5)">
      <g
         id="g2323"
         clip-path="url(#clipPath2327)">
        <g
           id="g2329"
           transform="translate(36.0396,50.0313)">
          <path
             d="m 0,0 v 0 c -1.313,0 -1.793,-1.34 -1.793,-2.28 0,-0.833 0.399,-1.353 1.1,-1.353 0.44,0 0.813,0.253 1.073,0.633 0,-0.428 0.18,-0.573 0.467,-0.633 L 0.96,-3.36 c -0.14,0.06 -0.22,0.132 -0.22,0.353 0,0.054 0.007,0.127 0.013,0.207 l 0.38,2.514 C 0.767,-0.101 0.453,0 0,0 m 0.013,-0.312 v 0 c 0.294,0 0.507,-0.061 0.714,-0.163 L 0.413,-2.573 c -0.293,-0.453 -0.613,-0.74 -1.04,-0.74 -0.48,0 -0.76,0.353 -0.76,1.033 0,0.805 0.374,1.968 1.4,1.968"
             style="fill:#231f20;fill-opacity:1;fill-rule:nonzero;stroke:none"
             id="path2331" />
        </g>
      </g>
    </g>
    <g
       id="g2333"
       transform="translate(0,55.5)">
      <g
         id="g2335"
         clip-path="url(#clipPath2339)">
        <g
           id="g2341"
           transform="translate(41.2266,51.3779)">
          <path
             d="m 0,0 -0.38,0.047 -0.267,-1.873 c -0.166,0.246 -0.453,0.478 -0.927,0.478 -1.213,0 -1.633,-1.352 -1.633,-2.258 0,-0.854 0.4,-1.373 1.073,-1.373 0.54,0 0.907,0.352 1.154,0.779 l -0.047,-0.706 h 0.334 z m -1.52,-1.667 v 0 c 0.42,0 0.66,-0.221 0.827,-0.514 L -0.907,-3.7 c -0.333,-0.568 -0.653,-0.96 -1.167,-0.96 -0.453,0 -0.726,0.352 -0.726,1.033 0,0.779 0.313,1.96 1.28,1.96"
             style="fill:#231f20;fill-opacity:1;fill-rule:nonzero;stroke:none"
             id="path2343" />
        </g>
      </g>
    </g>
    <g
       id="g2345"
       transform="translate(0,55.5)">
      <g
         id="g2347"
         clip-path="url(#clipPath2351)">
        <g
           id="g2353"
           transform="translate(43.5864,50.0313)">
          <path
             d="m 0,0 v 0 c -1.313,0 -1.747,-1.34 -1.747,-2.221 0,-0.88 0.454,-1.412 1.267,-1.412 1.32,0 1.74,1.373 1.74,2.234 C 1.26,-0.515 0.8,0 0,0 m -0.014,-0.32 v 0 c 0.56,0 0.867,-0.353 0.867,-1.053 0,-0.747 -0.307,-1.935 -1.327,-1.935 -0.56,0 -0.873,0.355 -0.873,1.055 0,0.727 0.3,1.933 1.333,1.933"
             style="fill:#231f20;fill-opacity:1;fill-rule:nonzero;stroke:none"
             id="path2355" />
        </g>
      </g>
    </g>
    <g
       id="g2357"
       transform="translate(51.0459,105.457)">
      <path
         d="M 0,0 -1.187,-3.191 -1.525,0 H -1.979 L -3.233,-3.186 -3.533,0 h -0.38 l 0.38,-3.485 h 0.513 l 1.22,3.127 0.327,-3.127 h 0.52 L 0.38,0 Z"
         style="fill:#231f20;fill-opacity:1;fill-rule:nonzero;stroke:none"
         id="path2359" />
    </g>
    <g
       id="g2361"
       transform="translate(0,55.5)">
      <g
         id="g2363"
         clip-path="url(#clipPath2367)">
        <g
           id="g2369"
           transform="translate(52.6865,51.4912)">
          <path
             d="m 0,0 v 0 c -0.16,0 -0.28,-0.106 -0.301,-0.261 -0.026,-0.167 0.08,-0.3 0.261,-0.3 0.166,0 0.279,0.115 0.3,0.26 C 0.286,-0.134 0.187,0 0,0 m -0.487,-5.021 0.493,3.488 h -0.387 l -0.493,-3.488 z"
             style="fill:#231f20;fill-opacity:1;fill-rule:nonzero;stroke:none"
             id="path2371" />
        </g>
      </g>
    </g>
    <g
       id="g2373"
       transform="translate(0,55.5)">
      <g
         id="g2375"
         clip-path="url(#clipPath2379)">
        <g
           id="g2381"
           transform="translate(54.1064,47.3311)">
          <path
             d="M 0,0 0.326,2.313 H 1.173 L 1.26,2.627 H 0.366 L 0.493,3.507 0.187,3.474 -0.007,2.627 H -0.601 L -0.646,2.313 h 0.584 l -0.325,-2.32 c -0.087,-0.606 0.206,-0.927 0.734,-0.927 0.279,0 0.519,0.08 0.753,0.213 L 0.966,-0.434 C 0.779,-0.533 0.6,-0.601 0.406,-0.601 0.053,-0.601 -0.062,-0.406 0,0"
             style="fill:#231f20;fill-opacity:1;fill-rule:nonzero;stroke:none"
             id="path2383" />
        </g>
      </g>
    </g>
    <g
       id="g2385"
       transform="translate(0,55.5)">
      <g
         id="g2387"
         clip-path="url(#clipPath2391)">
        <g
           id="g2393"
           transform="translate(57.9131,50.0313)">
          <path
             d="m 0,0 v 0 c -0.5,0 -0.974,-0.354 -1.301,-0.928 l 0.334,2.324 -0.387,-0.049 -0.693,-4.908 h 0.38 l 0.293,2.086 c 0.341,0.642 0.773,1.149 1.261,1.149 0.413,0 0.606,-0.207 0.526,-0.787 L 0.066,-3.561 H 0.453 L 0.8,-1.08 C 0.899,-0.406 0.613,0 0,0"
             style="fill:#231f20;fill-opacity:1;fill-rule:nonzero;stroke:none"
             id="path2395" />
        </g>
      </g>
    </g>
    <g
       id="g2397"
       transform="translate(0,55.5)">
      <g
         id="g2399"
         clip-path="url(#clipPath2403)">
        <g
           id="g2405"
           transform="translate(62.7861,51.0381)">
          <path
             d="m 0,0 h -0.895 l -0.638,-4.566 h 0.979 c 1.774,0 2.401,1.431 2.401,2.859 C 1.847,-0.3 0.946,0 0,0 m -0.547,-0.333 h 0.568 c 0.706,0 1.425,-0.174 1.425,-1.367 0,-1.195 -0.472,-2.533 -1.939,-2.533 h -0.594 z"
             style="fill:#231f20;fill-opacity:1;fill-rule:nonzero;stroke:none"
             id="path2407" />
        </g>
      </g>
    </g>
    <g
       id="g2409"
       transform="translate(0,55.5)">
      <g
         id="g2411"
         clip-path="url(#clipPath2415)">
        <g
           id="g2417"
           transform="translate(67.0996,50.0313)">
          <path
             d="m 0,0 v 0 c -1.313,0 -1.747,-1.34 -1.747,-2.221 0,-0.88 0.453,-1.412 1.267,-1.412 1.32,0 1.74,1.373 1.74,2.234 C 1.26,-0.515 0.8,0 0,0 m -0.014,-0.32 v 0 c 0.561,0 0.868,-0.353 0.868,-1.053 0,-0.747 -0.307,-1.935 -1.328,-1.935 -0.559,0 -0.873,0.355 -0.873,1.055 0,0.727 0.3,1.933 1.333,1.933"
             style="fill:#231f20;fill-opacity:1;fill-rule:nonzero;stroke:none"
             id="path2419" />
        </g>
      </g>
    </g>
    <g
       id="g2421"
       transform="translate(0,55.5)">
      <g
         id="g2423"
         clip-path="url(#clipPath2427)">
        <g
           id="g2429"
           transform="translate(73.126,50.0313)">
          <path
             d="M 0,0 V 0 C -0.453,0 -0.866,-0.308 -1.213,-0.86 -1.213,-0.3 -1.514,0 -1.953,0 -2.44,0 -2.847,-0.354 -3.187,-0.935 l 0.087,0.862 h -0.32 l -0.493,-3.488 h 0.38 l 0.293,2.086 c 0.34,0.642 0.726,1.149 1.18,1.149 0.32,0 0.52,-0.207 0.44,-0.787 l -0.347,-2.448 h 0.38 l 0.301,2.108 c 0.346,0.627 0.726,1.127 1.18,1.127 0.32,0 0.519,-0.207 0.433,-0.787 L -0.02,-3.561 H 0.367 L 0.714,-1.08 C 0.813,-0.406 0.526,0 0,0"
             style="fill:#231f20;fill-opacity:1;fill-rule:nonzero;stroke:none"
             id="path2431" />
        </g>
      </g>
    </g>
    <g
       id="g2433"
       transform="translate(0,55.5)">
      <g
         id="g2435"
         clip-path="url(#clipPath2439)">
        <g
           id="g2441"
           transform="translate(77.6191,49.1914)">
          <path
             d="m 0,0 v 0 c 0,0.474 -0.38,0.84 -1.061,0.84 -1.246,0 -1.752,-1.26 -1.752,-2.235 0,-0.892 0.466,-1.398 1.267,-1.398 0.453,0 0.826,0.152 1.187,0.413 l -0.174,0.274 C -0.859,-2.34 -1.146,-2.46 -1.521,-2.46 c -0.526,0 -0.892,0.314 -0.892,1.072 v 0.04 C -0.993,-1.233 0,-0.895 0,0 m -1.066,0.52 v 0 c 0.473,0 0.667,-0.26 0.667,-0.535 0,-0.638 -0.694,-0.925 -1.994,-1.025 0.093,0.739 0.473,1.56 1.327,1.56"
             style="fill:#231f20;fill-opacity:1;fill-rule:nonzero;stroke:none"
             id="path2443" />
        </g>
      </g>
    </g>
    <g
       id="g2445"
       transform="translate(0,55.5)">
      <g
         id="g2447"
         clip-path="url(#clipPath2451)">
        <g
           id="g2453"
           transform="translate(79.5791,50.0313)">
          <path
             d="m 0,0 v 0 c -0.779,0 -1.232,-0.437 -1.232,-0.928 0,-0.432 0.239,-0.705 0.932,-0.932 0.62,-0.201 0.8,-0.373 0.8,-0.741 0,-0.414 -0.34,-0.707 -0.953,-0.707 -0.42,0 -0.734,0.148 -0.993,0.395 L -1.687,-3.16 c 0.274,-0.26 0.647,-0.473 1.234,-0.473 0.834,0 1.353,0.433 1.353,1.053 0,0.526 -0.293,0.812 -0.979,1.026 -0.567,0.174 -0.761,0.341 -0.761,0.641 0,0.366 0.327,0.593 0.84,0.593 0.327,0 0.601,-0.108 0.847,-0.326 l 0.214,0.251 C 0.768,-0.141 0.427,0 0,0"
             style="fill:#231f20;fill-opacity:1;fill-rule:nonzero;stroke:none"
             id="path2455" />
        </g>
      </g>
    </g>
    <g
       id="g2457"
       transform="translate(0,55.5)">
      <g
         id="g2459"
         clip-path="url(#clipPath2463)">
        <g
           id="g2465"
           transform="translate(81.8662,47.3311)">
          <path
             d="M 0,0 0.326,2.313 H 1.173 L 1.26,2.627 H 0.366 L 0.493,3.507 0.187,3.474 -0.007,2.627 H -0.601 L -0.646,2.313 h 0.585 l -0.326,-2.32 c -0.087,-0.606 0.206,-0.927 0.734,-0.927 0.279,0 0.519,0.08 0.753,0.213 L 0.967,-0.434 C 0.78,-0.533 0.6,-0.601 0.406,-0.601 0.053,-0.601 -0.061,-0.406 0,0"
             style="fill:#231f20;fill-opacity:1;fill-rule:nonzero;stroke:none"
             id="path2467" />
        </g>
      </g>
    </g>
    <g
       id="g2469"
       transform="translate(0,55.5)">
      <g
         id="g2471"
         clip-path="url(#clipPath2475)">
        <g
           id="g2477"
           transform="translate(84.499,51.4912)">
          <path
             d="m 0,0 v 0 c -0.159,0 -0.279,-0.106 -0.3,-0.261 -0.026,-0.167 0.08,-0.3 0.26,-0.3 0.167,0 0.28,0.115 0.301,0.26 C 0.287,-0.134 0.187,0 0,0 m -0.486,-5.021 0.493,3.488 H -0.38 l -0.493,-3.488 z"
             style="fill:#231f20;fill-opacity:1;fill-rule:nonzero;stroke:none"
             id="path2479" />
        </g>
      </g>
    </g>
    <g
       id="g2481"
       transform="translate(0,55.5)">
      <g
         id="g2483"
         clip-path="url(#clipPath2487)">
        <g
           id="g2489"
           transform="translate(87.0928,50.0313)">
          <path
             d="m 0,0 v 0 c -1.273,0 -1.733,-1.32 -1.733,-2.228 0,-0.899 0.473,-1.405 1.266,-1.405 0.373,0 0.727,0.126 1.033,0.36 L 0.4,-3 c -0.267,-0.181 -0.527,-0.293 -0.86,-0.293 -0.526,0 -0.873,0.333 -0.873,1.047 0,0.771 0.326,1.92 1.34,1.92 0.3,0 0.519,-0.087 0.713,-0.275 l 0.22,0.242 C 0.68,-0.104 0.373,0 0,0"
             style="fill:#231f20;fill-opacity:1;fill-rule:nonzero;stroke:none"
             id="path2491" />
        </g>
      </g>
    </g>
    <g
       id="g2493"
       transform="translate(0,55.5)">
      <g
         id="g2495"
         clip-path="url(#clipPath2499)">
        <g
           id="g2501"
           transform="translate(25.4922,42.0313)">
          <path
             d="m 0,0 v 0 c -1.313,0 -1.793,-1.34 -1.793,-2.28 0,-0.833 0.399,-1.353 1.1,-1.353 0.44,0 0.813,0.253 1.073,0.633 0,-0.428 0.18,-0.573 0.467,-0.633 L 0.96,-3.36 c -0.14,0.06 -0.22,0.132 -0.22,0.353 0,0.054 0.007,0.127 0.013,0.207 l 0.38,2.514 C 0.767,-0.101 0.453,0 0,0 m 0.013,-0.312 v 0 c 0.294,0 0.507,-0.061 0.714,-0.163 L 0.413,-2.573 c -0.293,-0.453 -0.613,-0.74 -1.04,-0.74 -0.48,0 -0.76,0.353 -0.76,1.033 0,0.805 0.373,1.968 1.4,1.968"
             style="fill:#231f20;fill-opacity:1;fill-rule:nonzero;stroke:none"
             id="path2503" />
        </g>
      </g>
    </g>
    <g
       id="g2505"
       transform="translate(0,55.5)">
      <g
         id="g2507"
         clip-path="url(#clipPath2511)">
        <g
           id="g2513"
           transform="translate(29.5522,42.0313)">
          <path
             d="m 0,0 v 0 c -0.5,0 -0.973,-0.359 -1.32,-0.937 l 0.087,0.864 h -0.32 l -0.494,-3.488 h 0.38 l 0.293,2.086 c 0.341,0.642 0.781,1.149 1.261,1.149 0.413,0 0.606,-0.207 0.526,-0.787 L 0.067,-3.561 H 0.453 L 0.8,-1.08 C 0.9,-0.406 0.613,0 0,0"
             style="fill:#231f20;fill-opacity:1;fill-rule:nonzero;stroke:none"
             id="path2515" />
        </g>
      </g>
    </g>
    <g
       id="g2517"
       transform="translate(0,55.5)">
      <g
         id="g2519"
         clip-path="url(#clipPath2523)">
        <g
           id="g2525"
           transform="translate(34.5522,43.3779)">
          <path
             d="m 0,0 -0.38,0.047 -0.267,-1.873 c -0.166,0.246 -0.453,0.478 -0.926,0.478 -1.214,0 -1.634,-1.352 -1.634,-2.258 0,-0.854 0.4,-1.373 1.074,-1.373 0.54,0 0.906,0.352 1.153,0.779 l -0.047,-0.706 h 0.334 z m -1.52,-1.667 v 0 c 0.42,0 0.66,-0.221 0.827,-0.514 L -0.907,-3.7 c -0.333,-0.568 -0.653,-0.96 -1.166,-0.96 -0.454,0 -0.727,0.352 -0.727,1.033 0,0.779 0.313,1.96 1.28,1.96"
             style="fill:#231f20;fill-opacity:1;fill-rule:nonzero;stroke:none"
             id="path2527" />
        </g>
      </g>
    </g>
    <g
       id="g2529"
       transform="translate(37.3794,98.5371)">
      <path
         d="m 0,0 -0.641,-4.566 h 0.394 l 0.299,2.121 h 1.581 l 0.046,0.333 h -1.58 l 0.247,1.78 H 2.173 L 2.266,0 Z"
         style="fill:#231f20;fill-opacity:1;fill-rule:nonzero;stroke:none"
         id="path2531" />
    </g>
    <g
       id="g2533"
       transform="translate(0,55.5)">
      <g
         id="g2535"
         clip-path="url(#clipPath2539)">
        <g
           id="g2541"
           transform="translate(41.3389,42.0313)">
          <path
             d="m 0,0 v 0 c -1.313,0 -1.747,-1.34 -1.747,-2.221 0,-0.88 0.454,-1.412 1.267,-1.412 1.32,0 1.74,1.373 1.74,2.234 C 1.26,-0.514 0.8,0 0,0 m -0.013,-0.32 v 0 c 0.56,0 0.867,-0.353 0.867,-1.053 0,-0.747 -0.307,-1.935 -1.327,-1.935 -0.56,0 -0.874,0.355 -0.874,1.055 0,0.727 0.3,1.933 1.334,1.933"
             style="fill:#231f20;fill-opacity:1;fill-rule:nonzero;stroke:none"
             id="path2543" />
        </g>
      </g>
    </g>
    <g
       id="g2545"
       transform="translate(0,55.5)">
      <g
         id="g2547"
         clip-path="url(#clipPath2551)">
        <g
           id="g2553"
           transform="translate(45.292,42.0313)">
          <path
             d="m 0,0 v 0 c -0.48,0 -0.853,-0.333 -1.113,-0.92 l 0.093,0.847 H -1.347 L -1.84,-3.561 h 0.38 l 0.287,1.988 c 0.287,0.747 0.613,1.2 1.12,1.2 0.093,0 0.186,-0.007 0.28,-0.033 l 0.106,0.359 C 0.253,-0.021 0.133,0 0,0"
             style="fill:#231f20;fill-opacity:1;fill-rule:nonzero;stroke:none"
             id="path2555" />
        </g>
      </g>
    </g>
    <g
       id="g2557"
       transform="translate(0,55.5)">
      <g
         id="g2559"
         clip-path="url(#clipPath2563)">
        <g
           id="g2565"
           transform="translate(48.5396,41.1914)">
          <path
             d="m 0,0 v 0 c 0,0.474 -0.38,0.84 -1.06,0.84 -1.247,0 -1.753,-1.26 -1.753,-2.235 0,-0.892 0.466,-1.398 1.266,-1.398 0.454,0 0.827,0.152 1.187,0.413 l -0.173,0.274 C -0.86,-2.34 -1.146,-2.46 -1.52,-2.46 c -0.527,0 -0.894,0.314 -0.894,1.072 v 0.04 C -0.993,-1.233 0,-0.895 0,0 m -1.067,0.52 v 0 c 0.474,0 0.667,-0.26 0.667,-0.535 0,-0.638 -0.693,-0.925 -1.994,-1.025 0.094,0.739 0.474,1.56 1.327,1.56"
             style="fill:#231f20;fill-opacity:1;fill-rule:nonzero;stroke:none"
             id="path2567" />
        </g>
      </g>
    </g>
    <g
       id="g2569"
       transform="translate(0,55.5)">
      <g
         id="g2571"
         clip-path="url(#clipPath2575)">
        <g
           id="g2577"
           transform="translate(50.0859,43.4912)">
          <path
             d="m 0,0 v 0 c -0.16,0 -0.28,-0.106 -0.3,-0.261 -0.026,-0.167 0.08,-0.3 0.26,-0.3 0.167,0 0.28,0.115 0.3,0.26 C 0.287,-0.134 0.187,0 0,0 m -0.486,-5.021 0.493,3.488 H -0.38 l -0.493,-3.488 z"
             style="fill:#231f20;fill-opacity:1;fill-rule:nonzero;stroke:none"
             id="path2579" />
        </g>
      </g>
    </g>
    <g
       id="g2581"
       transform="translate(0,55.5)">
      <g
         id="g2583"
         clip-path="url(#clipPath2587)">
        <g
           id="g2589"
           transform="translate(52.7324,42.0313)">
          <path
             d="m 0,0 v 0 c -1.312,0 -1.807,-1.28 -1.807,-2.228 0.007,-0.812 0.414,-1.333 1.114,-1.333 0.426,0 0.794,0.248 1.047,0.601 L 0.273,-3.54 c -0.113,-0.84 -0.585,-1.064 -1.092,-1.064 -0.401,0 -0.734,0.144 -0.988,0.284 L -1.96,-4.613 c 0.307,-0.18 0.714,-0.324 1.153,-0.324 0.728,0 1.307,0.35 1.46,1.404 l 0.474,3.247 C 0.768,-0.101 0.454,0 0,0 m 0.007,-0.312 v 0 c 0.294,0 0.514,-0.061 0.721,-0.163 L 0.421,-2.507 C 0.127,-2.953 -0.206,-3.24 -0.64,-3.24 c -0.466,0 -0.753,0.352 -0.753,1.012 -0.006,0.815 0.38,1.916 1.4,1.916"
             style="fill:#231f20;fill-opacity:1;fill-rule:nonzero;stroke:none"
             id="path2591" />
        </g>
      </g>
    </g>
    <g
       id="g2593"
       transform="translate(0,55.5)">
      <g
         id="g2595"
         clip-path="url(#clipPath2599)">
        <g
           id="g2601"
           transform="translate(56.8398,42.0313)">
          <path
             d="m 0,0 v 0 c -0.5,0 -0.974,-0.359 -1.32,-0.937 l 0.087,0.864 h -0.321 l -0.493,-3.488 h 0.38 l 0.293,2.086 c 0.34,0.642 0.78,1.149 1.261,1.149 0.413,0 0.606,-0.207 0.526,-0.787 L 0.066,-3.561 H 0.453 L 0.8,-1.08 C 0.899,-0.406 0.613,0 0,0"
             style="fill:#231f20;fill-opacity:1;fill-rule:nonzero;stroke:none"
             id="path2603" />
        </g>
      </g>
    </g>
    <g
       id="g2605"
       transform="translate(0,55.5)">
      <g
         id="g2607"
         clip-path="url(#clipPath2611)">
        <g
           id="g2613"
           transform="translate(61.8662,43.0381)">
          <path
             d="M 0,0 H -1.054 L -1.693,-4.566 H -1.3 l 0.246,1.779 h 0.674 c 1.446,0 1.9,0.812 1.9,1.634 C 1.52,-0.36 0.96,0 0,0 m -0.36,-2.46 h -0.647 l 0.3,2.134 h 0.681 c 0.713,0 1.132,-0.221 1.132,-0.827 0,-0.655 -0.299,-1.307 -1.466,-1.307"
             style="fill:#231f20;fill-opacity:1;fill-rule:nonzero;stroke:none"
             id="path2615" />
        </g>
      </g>
    </g>
    <g
       id="g2617"
       transform="translate(0,55.5)">
      <g
         id="g2619"
         clip-path="url(#clipPath2623)">
        <g
           id="g2625"
           transform="translate(65.4395,42.0313)">
          <path
             d="m 0,0 v 0 c -1.312,0 -1.793,-1.34 -1.793,-2.28 0,-0.833 0.399,-1.353 1.1,-1.353 0.44,0 0.813,0.253 1.073,0.633 0,-0.428 0.18,-0.573 0.467,-0.633 L 0.96,-3.36 c -0.14,0.06 -0.22,0.132 -0.22,0.353 0,0.054 0.007,0.127 0.013,0.207 l 0.381,2.514 C 0.767,-0.101 0.453,0 0,0 m 0.014,-0.312 v 0 c 0.293,0 0.507,-0.061 0.713,-0.163 L 0.413,-2.573 c -0.293,-0.453 -0.613,-0.74 -1.04,-0.74 -0.477,0 -0.76,0.353 -0.76,1.033 0,0.805 0.373,1.968 1.401,1.968"
             style="fill:#231f20;fill-opacity:1;fill-rule:nonzero;stroke:none"
             id="path2627" />
        </g>
      </g>
    </g>
    <g
       id="g2629"
       transform="translate(0,55.5)">
      <g
         id="g2631"
         clip-path="url(#clipPath2635)">
        <g
           id="g2637"
           transform="translate(69.293,42.0313)">
          <path
             d="m 0,0 v 0 c -0.479,0 -0.854,-0.333 -1.113,-0.92 l 0.092,0.847 H -1.347 L -1.84,-3.561 h 0.38 l 0.286,1.988 c 0.287,0.747 0.613,1.2 1.12,1.2 0.094,0 0.187,-0.007 0.281,-0.033 l 0.106,0.359 C 0.253,-0.021 0.133,0 0,0"
             style="fill:#231f20;fill-opacity:1;fill-rule:nonzero;stroke:none"
             id="path2639" />
        </g>
      </g>
    </g>
    <g
       id="g2641"
       transform="translate(0,55.5)">
      <g
         id="g2643"
         clip-path="url(#clipPath2647)">
        <g
           id="g2649"
           transform="translate(70.4258,39.3311)">
          <path
             d="M 0,0 0.327,2.313 H 1.174 L 1.261,2.627 H 0.367 L 0.494,3.507 0.187,3.474 -0.006,2.627 H -0.6 L -0.646,2.313 h 0.586 l -0.327,-2.319 c -0.086,-0.607 0.207,-0.928 0.734,-0.928 0.28,0 0.52,0.08 0.754,0.213 L 0.967,-0.434 C 0.78,-0.533 0.601,-0.601 0.407,-0.601 0.054,-0.601 -0.06,-0.406 0,0"
             style="fill:#231f20;fill-opacity:1;fill-rule:nonzero;stroke:none"
             id="path2651" />
        </g>
      </g>
    </g>
    <g
       id="g2653"
       transform="translate(0,55.5)">
      <g
         id="g2655"
         clip-path="url(#clipPath2659)">
        <g
           id="g2661"
           transform="translate(73.4727,42.0313)">
          <path
             d="m 0,0 v 0 c -0.779,0 -1.233,-0.437 -1.233,-0.928 0,-0.431 0.24,-0.705 0.933,-0.931 0.62,-0.202 0.8,-0.374 0.8,-0.742 0,-0.414 -0.34,-0.707 -0.953,-0.707 -0.42,0 -0.734,0.148 -0.993,0.395 L -1.687,-3.16 c 0.274,-0.26 0.647,-0.473 1.234,-0.473 0.833,0 1.353,0.433 1.353,1.053 0,0.526 -0.293,0.812 -0.98,1.026 -0.566,0.174 -0.76,0.341 -0.76,0.641 0,0.366 0.327,0.593 0.84,0.593 0.327,0 0.601,-0.108 0.847,-0.326 l 0.215,0.251 C 0.767,-0.141 0.427,0 0,0"
             style="fill:#231f20;fill-opacity:1;fill-rule:nonzero;stroke:none"
             id="path2663" />
        </g>
      </g>
    </g>
    <g
       id="g2665"
       transform="translate(0,55.5)">
      <g
         id="g2667"
         clip-path="url(#clipPath2671)">
        <g
           id="g2673"
           transform="translate(75.2998,39.0313)">
          <path
             d="m 0,0 v 0 c -0.193,0 -0.341,-0.146 -0.341,-0.348 0,-0.159 0.114,-0.285 0.287,-0.285 0.194,0 0.34,0.154 0.34,0.34 C 0.286,-0.127 0.18,0 0,0"
             style="fill:#231f20;fill-opacity:1;fill-rule:nonzero;stroke:none"
             id="path2675" />
        </g>
      </g>
    </g>
    <g
       id="g2679"
       clip-path="url(#clipPath2683)"
       transform="translate(0,55.5)">
      <g
         id="g2685"
         transform="translate(22.084,19.9746)">
        <path
           d="m 0,0 h -4.272 v -0.088 c 0,-2.501 -10e-4,-5.004 0.001,-7.504 0,-0.057 -0.017,-0.093 -0.064,-0.125 -0.672,-0.443 -1.342,-0.89 -2.011,-1.339 -0.018,-0.011 -0.036,-0.022 -0.062,-0.04 V 11.379 H 2.549 C 2.534,11.356 2.522,11.339 2.51,11.32 2.002,10.646 1.495,9.971 0.989,9.292 0.959,9.251 0.925,9.24 0.877,9.24 c -1.685,0.003 -3.368,0 -5.055,0 h -0.09 V 2.148 h 4.27 c 0.343,2.82 1.57,5.172 3.743,7.005 1.572,1.328 3.393,2.118 5.434,2.372 4.354,0.551 8.002,-1.617 9.878,-4.271 C 18.482,6.837 17.907,6.42 17.337,6.006 15.695,8.145 13.544,9.346 10.846,9.46 8.435,9.561 6.337,8.743 4.613,7.052 1.18,3.682 1.272,-1.823 4.768,-5.101 c 0.89,-0.835 1.917,-1.443 3.073,-1.83 1.157,-0.386 2.342,-0.517 3.556,-0.389 1.212,0.128 2.344,0.503 3.395,1.121 1.052,0.619 1.925,1.431 2.63,2.435 0.585,-0.407 1.169,-0.813 1.758,-1.222 C 18.235,-6.331 17.054,-7.405 15.617,-8.192 13.742,-9.221 11.733,-9.657 9.603,-9.467 7.083,-9.24 4.904,-8.24 3.101,-6.464 1.299,-4.687 0.286,-2.519 0,0"
           style="fill:#231f20;fill-opacity:1;fill-rule:nonzero;stroke:none"
           id="path2687" />
      </g>
      <g
         id="g2689"
         transform="translate(35.7886,18.8047)">
        <path
           d="m 0,0 v 0 c 0.583,-0.405 1.163,-0.812 1.754,-1.224 -0.542,-0.768 -1.217,-1.381 -2.04,-1.831 -1.185,-0.644 -2.452,-0.88 -3.788,-0.678 -2.852,0.421 -4.903,2.754 -5.119,5.464 -0.235,2.935 1.641,5.509 4.338,6.28 C -2.161,8.78 0.402,7.581 1.681,5.759 1.106,5.342 0.532,4.924 -0.043,4.508 c -0.762,0.986 -1.754,1.541 -3,1.591 -1.075,0.044 -2.017,-0.311 -2.8,-1.045 -1.613,-1.51 -1.639,-4.027 -0.098,-5.566 0.85,-0.849 1.888,-1.23 3.086,-1.13 C -1.656,-1.539 -0.713,-0.968 0,0"
           style="fill:#231f20;fill-opacity:1;fill-rule:nonzero;stroke:none"
           id="path2691" />
      </g>
      <g
         id="g2693"
         transform="translate(65.6719,13.6475)">
        <path
           d="m 0,0 v -3.13 c -0.344,-0.034 -0.692,-0.053 -1.046,-0.053 -5.818,0 -10.564,4.745 -10.564,10.562 0,5.815 4.746,10.56 10.564,10.56 0.354,0 0.702,-0.017 1.046,-0.051 v -3.13 c -0.344,0.049 -0.692,0.075 -1.046,0.075 -4.106,0 -7.457,-3.353 -7.457,-7.454 0,-4.108 3.351,-7.454 7.457,-7.454 0.354,0 0.702,0.026 1.046,0.075"
           style="fill:#231f20;fill-opacity:1;fill-rule:evenodd;stroke:none"
           id="path2695" />
      </g>
      <g
         id="g2697"
         transform="translate(75.499,22.6387)">
        <path
           d="M 0,0 H 6.102 V -3.229 H 0 c 0.741,-3.333 3.725,-5.837 7.277,-5.837 0.354,0 0.706,0.026 1.048,0.075 v -3.13 c -0.346,-0.033 -0.694,-0.053 -1.048,-0.053 -5.819,0 -10.559,4.745 -10.559,10.562 0,5.816 4.74,10.559 10.559,10.559 0.354,0 0.702,-0.016 1.048,-0.051 V 5.767 C 7.979,5.815 7.631,5.843 7.277,5.843 3.725,5.843 0.741,3.336 0,0"
           style="fill:#231f20;fill-opacity:1;fill-rule:evenodd;stroke:none"
           id="path2699" />
      </g>
    </g>
    <text
       xml:space="preserve"
       transform="scale(1,-1)"
       style="font-variant:normal;font-weight:normal;font-stretch:normal;font-size:7.5px;font-family:'Myriad Pro';-inkscape-font-specification:MyriadPro-Regular;writing-mode:lr-tb;fill:#231f20;fill-opacity:1;fill-rule:nonzero;stroke:none"
       id="text2721"
       x="34.2313"
       y="-176.7305"><tspan
         x="34.2313 37.373802 42.263802 46.021301 49.636299 53.866302 57.623802 60.076302"
         y="-176.7305"
         sodipodi:role="line"
         id="tspan2719">Header</tspan></text>
    <text
       xml:space="preserve"
       transform="matrix(1,0,0,-1,36.8442,160.2173)"
       style="font-variant:normal;font-weight:normal;font-stretch:normal;font-size:12px;font-family:'Myriad Pro';-inkscape-font-specification:MyriadPro-Regular;writing-mode:lr-tb;fill:#231f20;fill-opacity:1;fill-rule:nonzero;stroke:none"
       id="text2739"><tspan
         x="0 5.0279999 13.296 19.752001"
         y="0"
         sodipodi:role="line"
         id="tspan2735">QR-</tspan><tspan
         x="0 6.8280001 13.416 20.184"
         y="14.4"
         sodipodi:role="line"
         id="tspan2737">Code</tspan></text>
  </g>
</svg>
